FW_Gmkhi_028.ufo
<glyph name="exclam" format="1">
  <advance width="586"/>
  <unicode hex="0021"/>
  <outline>
    <contour>
      <point x="259" y="986" type="line"/>
      <point x="259" y="829" type="line"/>
      <point x="267" y="348" type="line"/>
      <point x="289" y="348" type="line"/>
      <point x="295" y="829" type="line"/>
      <point x="295" y="986" type="line"/>
    </contour>
    <component base="period.001" xOffset="57"/>
  </outline>
</glyph>
<glyph name="quotedbl" format="1">
  <advance width="623"/>
  <unicode hex="0022"/>
  <outline>
    <contour>
      <point x="385" y="913" type="line"/>
      <point x="410" y="913" type="line"/>
      <point x="508" y="1430" type="line"/>
      <point x="508" y="1434" type="line"/>
      <point x="457" y="1434" type="line"/>
    </contour>
    <contour>
      <point x="123" y="913" type="line"/>
      <point x="147" y="913" type="line"/>
      <point x="246" y="1430" type="line"/>
      <point x="246" y="1434" type="line"/>
      <point x="195" y="1434" type="line"/>
    </contour>
  </outline>
</glyph>
<glyph name="percent" format="1">
  <advance width="1626"/>
  <unicode hex="0025"/>
  <outline>
    <contour>
      <point x="572.029850746" y="713.0"/>
      <point x="745.0" y="934.223880597"/>
      <point x="745" y="1079" type="qcurve" smooth="yes"/>
      <point x="745" y="1083" type="line" smooth="yes"/>
      <point x="745.0" y="1227.02985075"/>
      <point x="572.029850746" y="1450.0"/>
      <point x="428" y="1450" type="qcurve" smooth="yes"/>
      <point x="286.208955224" y="1450.0"/>
      <point x="111.0" y="1227.02985075"/>
      <point x="111" y="1083" type="qcurve" smooth="yes"/>
      <point x="111" y="1079" type="line" smooth="yes"/>
      <point x="111.0" y="934.223880597"/>
      <point x="286.208955224" y="713.0"/>
      <point x="428" y="713" type="qcurve" smooth="yes"/>
    </contour>
    <contour>
      <point x="551.373134328" y="1411.0"/>
      <point x="700.0" y="1207.86567164"/>
      <point x="700" y="1081" type="qcurve" smooth="yes"/>
      <point x="700" y="1077" type="line"/>
      <point x="700.0" y="948.641791045"/>
      <point x="555.373134328" y="752.0"/>
      <point x="430" y="752" type="qcurve" smooth="yes"/>
      <point x="306.119402985" y="752.0"/>
      <point x="156.0" y="952.641791045"/>
      <point x="156" y="1081" type="qcurve" smooth="yes"/>
      <point x="156" y="1085" type="line" smooth="yes"/>
      <point x="156.0" y="1211.86567164"/>
      <point x="302.119402985" y="1411.0"/>
      <point x="426" y="1411" type="qcurve" smooth="yes"/>
    </contour>
    <contour>
      <point x="797" y="725" type="line"/>
      <point x="264" y="0" type="line"/>
      <point x="309" y="0" type="line"/>
      <point x="823" y="700" type="line"/>
      <point x="1362" y="1434" type="line"/>
      <point x="1317" y="1434" type="line"/>
    </contour>
    <contour>
      <point x="1342.02985075" y="-16.0"/>
      <point x="1516.0" y="205.223880597"/>
      <point x="1516" y="350" type="qcurve" smooth="yes"/>
      <point x="1516" y="354" type="line" smooth="yes"/>
      <point x="1516.0" y="498.029850746"/>
      <point x="1342.02985075" y="721.0"/>
      <point x="1198" y="721" type="qcurve" smooth="yes"/>
      <point x="1056.20895522" y="721.0"/>
      <point x="881.0" y="498.029850746"/>
      <point x="881" y="354" type="qcurve" smooth="yes"/>
      <point x="881" y="350" type="line" smooth="yes"/>
      <point x="881.0" y="205.223880597"/>
      <point x="1056.20895522" y="-16.0"/>
      <point x="1198" y="-16" type="qcurve" smooth="yes"/>
    </contour>
    <contour>
      <point x="1076.11940299" y="23.0"/>
      <point x="926.0" y="223.641791045"/>
      <point x="926" y="352" type="qcurve" smooth="yes"/>
      <point x="926" y="356" type="line" smooth="yes"/>
      <point x="926.0" y="482.865671642"/>
      <point x="1072.11940299" y="682.0"/>
      <point x="1196" y="682" type="qcurve" smooth="yes"/>
      <point x="1321.37313433" y="682.0"/>
      <point x="1470.0" y="478.865671642"/>
      <point x="1470" y="352" type="qcurve" smooth="yes"/>
      <point x="1470" y="348" type="line" smooth="yes"/>
      <point x="1470.0" y="219.641791045"/>
      <point x="1325.37313433" y="23.0"/>
      <point x="1200" y="23" type="qcurve" smooth="yes"/>
    </contour>
  </outline>
</glyph>
<glyph name="parenright" format="1">
  <advance width="674"/>
  <unicode hex="0029"/>
  <outline>
    <contour>
      <point x="144" y="-319" type="line"/>
      <point x="365.641791045" y="-138.402985075"/>
      <point x="537.0" y="257.52238806"/>
      <point x="537" y="512" type="qcurve" smooth="yes"/>
      <point x="537" y="514" type="line" smooth="yes"/>
      <point x="537.0" y="766.23880597"/>
      <point x="348.47761194" y="1177.07462687"/>
      <point x="144" y="1342" type="qcurve"/>
      <point x="125" y="1317" type="line"/>
      <point x="306.343283582" y="1173.71641791"/>
      <point x="501.0" y="785.880597015"/>
      <point x="501" y="512" type="qcurve" smooth="yes"/>
      <point x="501.0" y="215.731343284"/>
      <point x="306.343283582" y="-144.746268657"/>
      <point x="125" y="-294" type="qcurve"/>
    </contour>
  </outline>
</glyph>
<glyph name="plus" format="1">
  <advance width="1229"/>
  <unicode hex="002B"/>
  <outline>
    <contour>
      <point x="594" y="231" type="line"/>
      <point x="635" y="231" type="line"/>
      <point x="635" y="702" type="line"/>
      <point x="1083" y="702" type="line"/>
      <point x="1083" y="739" type="line"/>
      <point x="635" y="739" type="line"/>
      <point x="635" y="1210" type="line"/>
      <point x="594" y="1210" type="line"/>
      <point x="594" y="739" type="line"/>
      <point x="145" y="739" type="line"/>
      <point x="145" y="702" type="line"/>
      <point x="594" y="702" type="line"/>
    </contour>
  </outline>
</glyph>
<glyph name="comma" format="1">
  <advance width="439"/>
  <unicode hex="002C"/>
  <outline>
    <contour>
      <point x="199" y="140" type="line"/>
      <point x="199" y="43" type="line" smooth="yes"/>
      <point x="199.0" y="-43.5671641791"/>
      <point x="172.074626866" y="-228.059701493"/>
      <point x="137" y="-340" type="qcurve"/>
      <point x="166" y="-343" type="line"/>
      <point x="202.567164179" y="-235.537313433"/>
      <point x="235.0" y="-37.8656716418"/>
      <point x="235" y="39" type="qcurve" smooth="yes"/>
      <point x="235" y="140" type="line"/>
    </contour>
  </outline>
</glyph>
<glyph name="hyphen" format="1">
  <advance width="691"/>
  <unicode hex="002D"/>
  <outline>
    <contour>
      <point x="547" y="448" type="line"/>
      <point x="139" y="448" type="line"/>
      <point x="141" y="412" type="line"/>
      <point x="547" y="412" type="line"/>
    </contour>
  </outline>
</glyph>
<glyph name="zero" format="1">
  <advance width="969"/>
  <unicode hex="0030"/>
  <outline>
    <contour>
      <point x="342.029850746" y="917.0"/>
      <point x="124.0" y="660.76119403"/>
      <point x="124" y="463" type="qcurve" smooth="yes"/>
      <point x="124.0" y="268.970149254"/>
      <point x="342.029850746" y="1.0"/>
      <point x="498" y="1" type="qcurve" smooth="yes"/>
      <point x="653.223880597" y="1.0"/>
      <point x="872.0" y="268.970149254"/>
      <point x="872" y="463" type="qcurve" smooth="yes"/>
      <point x="872.0" y="660.76119403"/>
      <point x="653.223880597" y="917.0"/>
      <point x="498" y="917" type="qcurve" smooth="yes"/>
    </contour>
    <contour>
      <point x="638.044776119" y="878.0"/>
      <point x="836.0" y="641.850746269"/>
      <point x="836" y="462" type="qcurve" smooth="yes"/>
      <point x="836.0" y="282.895522388"/>
      <point x="638.044776119" y="40.0"/>
      <point x="497" y="40" type="qcurve" smooth="yes"/>
      <point x="356.701492537" y="40.0"/>
      <point x="160.0" y="282.895522388"/>
      <point x="160" y="462" type="qcurve" smooth="yes"/>
      <point x="160.0" y="641.850746269"/>
      <point x="356.701492537" y="878.0"/>
      <point x="497" y="878" type="qcurve" smooth="yes"/>
    </contour>
  </outline>
</glyph>
<glyph name="one" format="1">
  <advance width="468"/>
  <unicode hex="0031"/>
  <outline>
    <contour>
      <point x="283" y="0" type="line"/>
      <point x="318" y="0" type="line"/>
      <point x="318" y="919" type="line"/>
      <point x="284" y="919" type="line"/>
      <point x="61" y="863" type="line"/>
      <point x="75" y="831" type="line"/>
      <point x="297" y="886" type="line"/>
      <point x="283" y="902" type="line"/>
    </contour>
  </outline>
</glyph>
<glyph name="two" format="1">
  <advance width="808"/>
  <unicode hex="0032"/>
  <outline>
    <contour>
      <point x="130" y="40" type="line"/>
      <point x="130" y="0" type="line"/>
      <point x="738" y="0" type="line"/>
      <point x="738" y="36" type="line"/>
      <point x="170" y="36" type="line"/>
    </contour>
    <contour>
      <point x="157" y="19" type="line"/>
      <point x="376" y="217" type="line" smooth="yes"/>
      <point x="560.328358209" y="373.71641791"/>
      <point x="723.0" y="586.656716418"/>
      <point x="723" y="668" type="qcurve" smooth="yes"/>
      <point x="723.0" y="788.149253731"/>
      <point x="582.089552239" y="920.0"/>
      <point x="450" y="920" type="qcurve" smooth="yes"/>
      <point x="366.417910448" y="920.0"/>
      <point x="208.119402985" y="858.23880597"/>
      <point x="132" y="806" type="qcurve"/>
      <point x="153" y="779" type="line"/>
      <point x="217.179104478" y="823.776119403"/>
      <point x="367.134328358" y="884.0"/>
      <point x="444" y="884" type="qcurve" smooth="yes"/>
      <point x="562.656716418" y="884.0"/>
      <point x="687.0" y="764.014925373"/>
      <point x="687" y="667" type="qcurve" smooth="yes"/>
      <point x="687.0" y="598.343283582"/>
      <point x="536.074626866" y="402.447761194"/>
      <point x="351" y="242" type="qcurve" smooth="yes"/>
      <point x="130" y="40" type="line"/>
    </contour>
  </outline>
</glyph>
<glyph name="three" format="1">
  <advance width="822"/>
  <unicode hex="0033"/>
  <outline>
    <contour>
      <point x="552.567164179" y="-4.0"/>
      <point x="728.0" y="128.791044776"/>
      <point x="728" y="237" type="qcurve" smooth="yes"/>
      <point x="728.0" y="306.402985075"/>
      <point x="632.52238806" y="446.731343284"/>
      <point x="487" y="493" type="qcurve"/>
      <point x="487" y="485" type="line"/>
      <point x="592.970149254" y="512.611940299"/>
      <point x="703.0" y="642.388059701"/>
      <point x="703" y="720" type="qcurve" smooth="yes"/>
      <point x="703.0" y="808.059701493"/>
      <point x="568.029850746" y="922.0"/>
      <point x="424" y="922" type="qcurve" smooth="yes"/>
      <point x="326.985074627" y="922.0"/>
      <point x="163.955223881" y="862.298507463"/>
      <point x="105" y="822" type="qcurve"/>
      <point x="122" y="787" type="line"/>
      <point x="185.432835821" y="833.268656716"/>
      <point x="344.417910448" y="886.0"/>
      <point x="428" y="886" type="qcurve" smooth="yes"/>
      <point x="554.119402985" y="886.0"/>
      <point x="667.0" y="783.432835821"/>
      <point x="667" y="720" type="qcurve" smooth="yes"/>
      <point x="667.0" y="635.671641791"/>
      <point x="504.492537313" y="503.0"/>
      <point x="403" y="503" type="qcurve" smooth="yes"/>
      <point x="255" y="503" type="line"/>
      <point x="255" y="467" type="line"/>
      <point x="402" y="467" type="line" smooth="yes"/>
      <point x="528.865671642" y="467.0"/>
      <point x="692.0" y="322.074626866"/>
      <point x="692" y="237" type="qcurve" smooth="yes"/>
      <point x="692.0" y="145.955223881"/>
      <point x="547.104477612" y="32.0"/>
      <point x="418" y="32" type="qcurve" smooth="yes"/>
      <point x="342.626865672" y="32.0"/>
      <point x="184.865671642" y="80.9850746269"/>
      <point x="108" y="128" type="qcurve"/>
      <point x="90" y="97" type="line"/>
      <point x="161.641791045" y="55.2089552239"/>
      <point x="325.701492537" y="-4.0"/>
      <point x="416" y="-4" type="qcurve" smooth="yes"/>
    </contour>
  </outline>
</glyph>
<glyph name="seven" format="1">
  <advance width="805"/>
  <unicode hex="0037"/>
  <outline>
    <contour>
      <point x="722" y="918" type="line"/>
      <point x="694" y="918" type="line"/>
      <point x="265" y="0" type="line"/>
      <point x="311" y="0" type="line"/>
      <point x="722" y="890" type="line"/>
    </contour>
    <contour>
      <point x="722" y="918" type="line"/>
      <point x="101" y="918" type="line"/>
      <point x="101" y="882" type="line"/>
      <point x="706" y="882" type="line"/>
    </contour>
  </outline>
</glyph>
<glyph name="nine" format="1">
  <advance width="879"/>
  <unicode hex="0039"/>
  <outline>
    <contour>
      <point x="747" y="601" type="line"/>
      <point x="747.0" y="425.626865672"/>
      <point x="503.462686567" y="90.671641791"/>
      <point x="246" y="25" type="qcurve"/>
      <point x="268" y="-4" type="line"/>
      <point x="534.417910448" y="66.1492537313"/>
      <point x="783.0" y="416.52238806"/>
      <point x="783" y="621" type="qcurve" smooth="yes"/>
      <point x="783" y="623" type="line" smooth="yes"/>
      <point x="783.0" y="630.462686567"/>
      <point x="783.0" y="627.28358209"/>
      <point x="783" y="634" type="qcurve" smooth="yes"/>
      <point x="780.014925373" y="748.179104478"/>
      <point x="602.597014925" y="921.0"/>
      <point x="472" y="921" type="qcurve" smooth="yes"/>
      <point x="319.014925373" y="921.0"/>
      <point x="138.0" y="756.656716418"/>
      <point x="138" y="638" type="qcurve" smooth="yes"/>
      <point x="138.0" y="524.567164179"/>
      <point x="295.701492537" y="358.0"/>
      <point x="436" y="358" type="qcurve" smooth="yes"/>
      <point x="530.029850746" y="358.0"/>
      <point x="697.074626866" y="436.104477612"/>
      <point x="762" y="507" type="qcurve"/>
      <point x="762" y="544" type="line"/>
      <point x="688.865671642" y="462.656716418"/>
      <point x="521.835820896" y="394.0"/>
      <point x="439" y="394" type="qcurve" smooth="yes"/>
      <point x="324.074626866" y="394.0"/>
      <point x="174.0" y="537.253731343"/>
      <point x="174" y="638" type="qcurve" smooth="yes"/>
      <point x="174.0" y="740.23880597"/>
      <point x="341.402985075" y="885.0"/>
      <point x="472" y="885" type="qcurve" smooth="yes"/>
      <point x="594.388059701" y="885.0"/>
      <point x="747.0" y="723.71641791"/>
      <point x="747" y="617" type="qcurve"/>
    </contour>
  </outline>
</glyph>
<glyph name="greater" format="1">
  <advance width="1229"/>
  <unicode hex="003E"/>
  <outline>
    <contour>
      <point x="170" y="229" type="line"/>
      <point x="1112" y="711" type="line"/>
      <point x="1112" y="731" type="line"/>
      <point x="170" y="1212" type="line"/>
      <point x="170" y="1165" type="line"/>
      <point x="1047" y="721" type="line"/>
      <point x="170" y="276" type="line"/>
    </contour>
  </outline>
</glyph>
<glyph name="braceleft" format="1">
  <advance width="676"/>
  <unicode hex="007B"/>
  <outline>
    <contour>
      <point x="561" y="-283" type="line"/>
      <point x="434.134328358" y="-282.253731343"/>
      <point x="326.0" y="-181.268656716"/>
      <point x="326" y="-85" type="qcurve" smooth="yes"/>
      <point x="326.0" y="4.55223880597"/>
      <point x="341.0" y="184.507462687"/>
      <point x="341" y="286" type="qcurve" smooth="yes"/>
      <point x="341.0" y="376.298507463"/>
      <point x="270.223880597" y="489.850746269"/>
      <point x="165" y="510" type="qcurve"/>
      <point x="165" y="515" type="line"/>
      <point x="269.47761194" y="536.641791045"/>
      <point x="341.0" y="653.417910448"/>
      <point x="341" y="737" type="qcurve" smooth="yes"/>
      <point x="341.0" y="834.014925373"/>
      <point x="326.0" y="1023.70149254"/>
      <point x="326" y="1114" type="qcurve" smooth="yes"/>
      <point x="326.0" y="1208.7761194"/>
      <point x="434.134328358" y="1306.74626866"/>
      <point x="561" y="1306" type="qcurve"/>
      <point x="561" y="1342" type="line"/>
      <point x="480.402985075" y="1342.0"/>
      <point x="290.0" y="1263.92537313"/>
      <point x="290" y="1099" type="qcurve" smooth="yes"/>
      <point x="290.0" y="1004.97014925"/>
      <point x="305.0" y="798.805970149"/>
      <point x="305" y="710" type="qcurve" smooth="yes"/>
      <point x="305.0" y="645.820895522"/>
      <point x="226.985074627" y="547.164179104"/>
      <point x="124" y="530" type="qcurve"/>
      <point x="124" y="491" type="line"/>
      <point x="222.507462687" y="479.059701493"/>
      <point x="305.0" y="379.925373134"/>
      <point x="305" y="315" type="qcurve" smooth="yes"/>
      <point x="305.0" y="228.432835821"/>
      <point x="290.0" y="24.7164179104"/>
      <point x="290" y="-82" type="qcurve" smooth="yes"/>
      <point x="290.0" y="-243.940298507"/>
      <point x="480.402985075" y="-319.0"/>
      <point x="561" y="-319" type="qcurve"/>
    </contour>
  </outline>
</glyph>
<glyph name="braceright" format="1">
  <advance width="676"/>
  <unicode hex="007D"/>
  <outline>
    <contour>
      <point x="115" y="-319" type="line"/>
      <point x="195.597014925" y="-319.0"/>
      <point x="386.0" y="-243.940298507"/>
      <point x="386" y="-82" type="qcurve" smooth="yes"/>
      <point x="386.0" y="24.7164179104"/>
      <point x="371.0" y="228.432835821"/>
      <point x="371" y="315" type="qcurve" smooth="yes"/>
      <point x="371.0" y="379.925373134"/>
      <point x="453.492537313" y="479.059701493"/>
      <point x="552" y="491" type="qcurve"/>
      <point x="552" y="530" type="line"/>
      <point x="449.014925373" y="547.164179104"/>
      <point x="371.0" y="645.820895522"/>
      <point x="371" y="710" type="qcurve" smooth="yes"/>
      <point x="371.0" y="798.805970149"/>
      <point x="386.0" y="1004.97014925"/>
      <point x="386" y="1099" type="qcurve" smooth="yes"/>
      <point x="386.0" y="1263.92537313"/>
      <point x="195.597014925" y="1342.0"/>
      <point x="115" y="1342" type="qcurve"/>
      <point x="115" y="1306" type="line"/>
      <point x="241.865671642" y="1306.74626866"/>
      <point x="350.0" y="1208.7761194"/>
      <point x="350" y="1114" type="qcurve" smooth="yes"/>
      <point x="350.0" y="1023.70149254"/>
      <point x="335.0" y="834.014925373"/>
      <point x="335" y="737" type="qcurve" smooth="yes"/>
      <point x="335.0" y="653.417910448"/>
      <point x="406.52238806" y="536.641791045"/>
      <point x="511" y="515" type="qcurve"/>
      <point x="511" y="510" type="line"/>
      <point x="405.776119403" y="489.850746269"/>
      <point x="335.0" y="376.298507463"/>
      <point x="335" y="286" type="qcurve" smooth="yes"/>
      <point x="335.0" y="184.507462687"/>
      <point x="350.0" y="4.55223880597"/>
      <point x="350" y="-85" type="qcurve" smooth="yes"/>
      <point x="350.0" y="-181.268656716"/>
      <point x="241.865671642" y="-282.253731343"/>
      <point x="115" y="-283" type="qcurve"/>
    </contour>
  </outline>
</glyph>
<glyph name="cent" format="1">
  <advance width="1149"/>
  <unicode hex="00A2"/>
  <outline>
    <contour>
      <point x="794.044776119" y="190.0"/>
      <point x="1002.88059701" y="302.701492537"/>
      <point x="1079" y="393" type="qcurve"/>
      <point x="1051" y="418" type="line"/>
      <point x="980.104477612" y="336.656716418"/>
      <point x="783.358208955" y="229.0"/>
      <point x="655" y="229" type="qcurve" smooth="yes"/>
      <point x="452.014925373" y="229.0"/>
      <point x="182.0" y="530.492537313"/>
      <point x="182" y="729" type="qcurve" smooth="yes"/>
      <point x="182" y="729" type="line"/>
      <point x="182.0" y="927.507462687"/>
      <point x="459.76119403" y="1225.0"/>
      <point x="662" y="1225" type="qcurve" smooth="yes"/>
      <point x="793.343283582" y="1225.0"/>
      <point x="978.328358209" y="1113.40298507"/>
      <point x="1044" y="1044" type="qcurve"/>
      <point x="1073" y="1073" type="line"/>
      <point x="1001.35820896" y="1148.37313433"/>
      <point x="807.28358209" y="1264.0"/>
      <point x="664" y="1264" type="qcurve" smooth="yes"/>
      <point x="445.343283582" y="1264.0"/>
      <point x="139.0" y="942.671641791"/>
      <point x="139" y="727" type="qcurve" smooth="yes"/>
      <point x="139" y="727" type="line"/>
      <point x="139.0" y="511.328358209"/>
      <point x="432.850746269" y="190.0"/>
      <point x="653" y="190" type="qcurve" smooth="yes"/>
    </contour>
    <contour>
      <point x="475" y="-12" type="line"/>
      <point x="514" y="-12" type="line"/>
      <point x="561" y="229" type="line"/>
      <point x="561" y="229" type="line"/>
      <point x="524" y="240" type="line"/>
      <point x="524" y="240" type="line"/>
    </contour>
    <contour>
      <point x="801" y="1446" type="line"/>
      <point x="760" y="1446" type="line"/>
      <point x="721" y="1245" type="line"/>
      <point x="721" y="1245" type="line"/>
      <point x="520" y="217" type="line"/>
      <point x="557" y="209" type="line"/>
      <point x="760" y="1237" type="line"/>
      <point x="760" y="1237" type="line"/>
    </contour>
  </outline>
</glyph>
<glyph name="sterling" format="1">
  <advance width="1227"/>
  <unicode hex="00A3"/>
  <outline>
    <contour>
      <point x="133" y="0" type="line"/>
      <point x="1133" y="0" type="line"/>
      <point x="1133" y="41" type="line"/>
      <point x="365" y="41" type="line"/>
      <point x="365" y="653" type="line"/>
      <point x="983" y="653" type="line"/>
      <point x="983" y="694" type="line"/>
      <point x="365" y="694" type="line"/>
      <point x="365" y="940" type="line" smooth="yes"/>
      <point x="365.0" y="1065.37313433"/>
      <point x="434.014925373" y="1253.26865672"/>
      <point x="487" y="1307" type="qcurve" smooth="yes"/>
      <point x="539.23880597" y="1358.49253731"/>
      <point x="666.686567164" y="1413.0"/>
      <point x="754" y="1413" type="qcurve" smooth="yes"/>
      <point x="874.149253731" y="1413.0"/>
      <point x="1050.29850746" y="1292.29850746"/>
      <point x="1110" y="1202" type="qcurve"/>
      <point x="1147" y="1227" type="line"/>
      <point x="1082.82089552" y="1324.76119403"/>
      <point x="885.850746269" y="1454.0"/>
      <point x="756" y="1454" type="qcurve" smooth="yes"/>
      <point x="659.731343284" y="1454.0"/>
      <point x="512.970149254" y="1391.71641791"/>
      <point x="457" y="1335" type="qcurve" smooth="yes"/>
      <point x="392.820895522" y="1270.82089552"/>
      <point x="319.0" y="1071.31343284"/>
      <point x="319" y="934" type="qcurve" smooth="yes"/>
      <point x="319" y="694" type="line"/>
      <point x="133" y="694" type="line"/>
      <point x="133" y="653" type="line"/>
      <point x="319" y="653" type="line"/>
      <point x="319" y="43" type="line"/>
      <point x="133" y="27" type="line"/>
    </contour>
  </outline>
</glyph>
<glyph name="copyright" format="1">
  <advance width="1326"/>
  <unicode hex="00A9"/>
  <outline>
    <contour>
      <point x="897.835820896" y="-98.0"/>
      <point x="1228.0" y="232.402985075"/>
      <point x="1228" y="463" type="qcurve" smooth="yes"/>
      <point x="1228" y="465" type="line" smooth="yes"/>
      <point x="1228.0" y="696.343283582"/>
      <point x="897.835820896" y="1026.0"/>
      <point x="665" y="1026" type="qcurve" smooth="yes"/>
      <point x="434.402985075" y="1026.0"/>
      <point x="104.0" y="696.343283582"/>
      <point x="104" y="465" type="qcurve" smooth="yes"/>
      <point x="104" y="463" type="line" smooth="yes"/>
      <point x="104.0" y="232.402985075"/>
      <point x="434.402985075" y="-98.0"/>
      <point x="665" y="-98" type="qcurve" smooth="yes"/>
    </contour>
    <contour>
      <point x="446.343283582" y="-62.0"/>
      <point x="140.0" y="244.343283582"/>
      <point x="140" y="463" type="qcurve" smooth="yes"/>
      <point x="140" y="465" type="line" smooth="yes"/>
      <point x="140.0" y="683.656716418"/>
      <point x="446.343283582" y="990.0"/>
      <point x="665" y="990" type="qcurve" smooth="yes"/>
      <point x="885.149253731" y="990.0"/>
      <point x="1192.0" y="683.656716418"/>
      <point x="1192" y="465" type="qcurve" smooth="yes"/>
      <point x="1192" y="463" type="line" smooth="yes"/>
      <point x="1192.0" y="244.343283582"/>
      <point x="885.149253731" y="-62.0"/>
      <point x="665" y="-62" type="qcurve" smooth="yes"/>
    </contour>
    <contour>
      <point x="758.835820896" y="179.0"/>
      <point x="862.731343284" y="232.149253731"/>
      <point x="909" y="262" type="qcurve"/>
      <point x="890" y="292" type="line"/>
      <point x="847.462686567" y="264.388059701"/>
      <point x="750.641791045" y="215.0"/>
      <point x="679" y="215" type="qcurve" smooth="yes"/>
      <point x="571.537313433" y="215.0"/>
      <point x="433.0" y="363.029850746"/>
      <point x="433" y="469" type="qcurve"/>
      <point x="431.507462687" y="470.492537313"/>
      <point x="431.507462687" y="471.253731343"/>
      <point x="433" y="472" type="qcurve"/>
      <point x="433.0" y="574.23880597"/>
      <point x="555.059701493" y="723.0"/>
      <point x="667" y="723" type="qcurve" smooth="yes"/>
      <point x="732.671641791" y="723.0"/>
      <point x="824.955223881" y="692.880597015"/>
      <point x="866" y="669" type="qcurve"/>
      <point x="879" y="703" type="line"/>
      <point x="833.47761194" y="726.134328358"/>
      <point x="742.626865672" y="759.0"/>
      <point x="668" y="759" type="qcurve" smooth="yes"/>
      <point x="543.373134328" y="759.0"/>
      <point x="397.0" y="588.910447761"/>
      <point x="397" y="471" type="qcurve" smooth="yes"/>
      <point x="397" y="468" type="line" smooth="yes"/>
      <point x="397.0" y="351.582089552"/>
      <point x="555.850746269" y="179.0"/>
      <point x="676" y="179" type="qcurve" smooth="yes"/>
    </contour>
  </outline>
</glyph>
<glyph name="registered" format="1">
  <advance width="1081"/>
  <unicode hex="00AE"/>
  <outline>
    <contour>
      <point x="456.223880597" y="676.0"/>
      <point x="328.0" y="803.940298507"/>
      <point x="328" y="892" type="qcurve"/>
      <point x="328" y="892" type="line"/>
      <point x="328.0" y="979.313432836"/>
      <point x="458.462686567" y="1108.0"/>
      <point x="551" y="1108" type="qcurve" smooth="yes"/>
      <point x="645.776119403" y="1108.0"/>
      <point x="775.0" y="980.805970149"/>
      <point x="775" y="892" type="qcurve"/>
      <point x="775" y="892" type="line"/>
      <point x="775.0" y="804.686567164"/>
      <point x="645.029850746" y="676.0"/>
      <point x="551" y="676" type="qcurve" smooth="yes"/>
    </contour>
    <contour>
      <point x="653.985074627" y="651.0"/>
      <point x="804.0" y="796.47761194"/>
      <point x="804" y="892" type="qcurve"/>
      <point x="804" y="893" type="line"/>
      <point x="804.0" y="989.268656716"/>
      <point x="654.731343284" y="1132.0"/>
      <point x="551" y="1132" type="qcurve" smooth="yes"/>
      <point x="449.507462687" y="1132.0"/>
      <point x="300.0" y="987.52238806"/>
      <point x="300" y="892" type="qcurve"/>
      <point x="300" y="890" type="line"/>
      <point x="300.0" y="795.223880597"/>
      <point x="448.014925373" y="651.0"/>
      <point x="551" y="651" type="qcurve" smooth="yes"/>
    </contour>
    <contour>
      <point x="465" y="778" type="line"/>
      <point x="492" y="778" type="line"/>
      <point x="492" y="850" type="line"/>
      <point x="553" y="850" type="line"/>
      <point x="553" y="850" type="line"/>
      <point x="627" y="778" type="line"/>
      <point x="663" y="778" type="line"/>
      <point x="584" y="854" type="line"/>
      <point x="616.089552239" y="860.71641791"/>
      <point x="659.0" y="903.910447761"/>
      <point x="659" y="936" type="qcurve"/>
      <point x="659" y="936" type="line"/>
      <point x="659.0" y="969.582089552"/>
      <point x="611.268656716" y="1015.0"/>
      <point x="565" y="1015" type="qcurve" smooth="yes"/>
      <point x="465" y="1015" type="line"/>
    </contour>
    <contour>
      <point x="492" y="875" type="line"/>
      <point x="492" y="991" type="line"/>
      <point x="562" y="991" type="line" smooth="yes"/>
      <point x="597.820895522" y="991.0"/>
      <point x="632.0" y="955.895522388"/>
      <point x="632" y="935" type="qcurve"/>
      <point x="632" y="935" type="line"/>
      <point x="632.0" y="907.388059701"/>
      <point x="589.104477612" y="875.0"/>
      <point x="560" y="875" type="qcurve" smooth="yes"/>
    </contour>
  </outline>
</glyph>
<glyph name="plusminus" format="1">
  <advance width="1229"/>
  <unicode hex="00B1"/>
  <outline>
    <contour>
      <point x="1083" y="764" type="line"/>
      <point x="1083" y="801" type="line"/>
      <point x="635" y="801" type="line"/>
      <point x="635" y="1237" type="line"/>
      <point x="594" y="1237" type="line"/>
      <point x="594" y="801" type="line"/>
      <point x="145" y="801" type="line"/>
      <point x="145" y="764" type="line"/>
      <point x="594" y="764" type="line"/>
      <point x="594" y="328" type="line"/>
      <point x="635" y="328" type="line"/>
      <point x="635" y="764" type="line"/>
    </contour>
    <contour>
      <point x="1083" y="0" type="line"/>
      <point x="1083" y="37" type="line"/>
      <point x="145" y="37" type="line"/>
      <point x="145" y="0" type="line"/>
    </contour>
  </outline>
</glyph>
<glyph name="multiply" format="1">
  <advance width="1229"/>
  <unicode hex="00D7"/>
  <outline>
    <contour>
      <point x="1006" y="299" type="line"/>
      <point x="1036" y="330" type="line"/>
      <point x="641" y="723" type="line"/>
      <point x="1036" y="1116" type="line"/>
      <point x="1010" y="1143" type="line"/>
      <point x="616" y="748" type="line"/>
      <point x="223" y="1143" type="line"/>
      <point x="193" y="1112" type="line"/>
      <point x="588" y="719" type="line"/>
      <point x="193" y="326" type="line"/>
      <point x="219" y="299" type="line"/>
      <point x="612" y="694" type="line"/>
    </contour>
  </outline>
</glyph>
<glyph name="uni0964" format="1">
  <advance width="744"/>
  <unicode hex="0964"/>
  <outline>
    <contour>
      <point x="454" y="1054" type="line"/>
      <point x="454" y="-110" type="line"/>
      <point x="491" y="-110" type="line"/>
      <point x="491" y="1054" type="line"/>
    </contour>
  </outline>
</glyph>
<glyph name="uni0A01" format="1">
  <advance width="7"/>
  <unicode hex="0A01"/>
  <outline>
    <contour>
      <point x="-258.850746269" y="1140.0"/>
      <point x="-110.686567164" y="1318.37313433"/>
      <point x="-98" y="1443" type="qcurve"/>
      <point x="-133" y="1459" type="line"/>
      <point x="-135.985074627" y="1346.31343284"/>
      <point x="-271.552238806" y="1176.0"/>
      <point x="-382" y="1176" type="qcurve" smooth="yes"/>
      <point x="-491.701492537" y="1176.0"/>
      <point x="-620.552238806" y="1330.3880597"/>
      <point x="-631" y="1458" type="qcurve"/>
      <point x="-666" y="1442" type="line"/>
      <point x="-651.820895522" y="1300.20895522"/>
      <point x="-490.940298507" y="1140.0"/>
      <point x="-379" y="1140" type="qcurve" smooth="yes"/>
    </contour>
    <component base="uni0A3C" xOffset="583" yOffset="1345"/>
  </outline>
</glyph>
<glyph name="uni0A05" format="1">
  <advance width="1343"/>
  <unicode hex="0A05"/>
  <outline>
    <contour>
      <point x="1110" y="956" type="line"/>
      <point x="1075" y="956" type="line"/>
      <point x="1075" y="0" type="line"/>
      <point x="1110" y="0" type="line"/>
    </contour>
    <contour>
      <point x="1344" y="920" type="line"/>
      <point x="1344" y="956" type="line"/>
      <point x="1075" y="956" type="line"/>
      <point x="1075" y="920" type="line"/>
    </contour>
    <contour>
      <point x="694" y="288" type="line"/>
      <point x="744.0" y="358.149253731"/>
      <point x="772.358208955" y="660.597014925"/>
      <point x="744" y="780" type="qcurve"/>
      <point x="661.164179104" y="788.955223881"/>
      <point x="399.074626866" y="667.23880597"/>
      <point x="314" y="565" type="qcurve"/>
      <point x="323" y="556" type="line"/>
      <point x="325.985074627" y="656.746268657"/>
      <point x="282.776119403" y="839.223880597"/>
      <point x="238" y="884" type="qcurve" smooth="yes"/>
      <point x="197.701492537" y="924.298507463"/>
      <point x="88.4776119403" y="956.0"/>
      <point x="34" y="956" type="qcurve" smooth="yes"/>
      <point x="3" y="956" type="line"/>
      <point x="-4" y="920" type="line"/>
      <point x="23" y="920" type="line" smooth="yes"/>
      <point x="97.6268656716" y="920.0"/>
      <point x="183.865671642" y="887.134328358"/>
      <point x="207" y="864" type="qcurve" smooth="yes"/>
      <point x="253.268656716" y="817.731343284"/>
      <point x="291.985074627" y="633.52238806"/>
      <point x="289" y="538" type="qcurve"/>
      <point x="144" y="367" type="line"/>
      <point x="188" y="345" type="line"/>
      <point x="337" y="539" type="line"/>
      <point x="401.925373134" y="628.552238806"/>
      <point x="652.179104478" y="751.194029851"/>
      <point x="738" y="740" type="qcurve"/>
      <point x="719" y="761" type="line"/>
      <point x="732.432835821" y="644.582089552"/>
      <point x="708.71641791" y="367.029850746"/>
      <point x="652" y="273" type="qcurve"/>
      <point x="531" y="124" type="line"/>
      <point x="575" y="102" type="line"/>
      <point x="668" y="229" type="line"/>
      <point x="738.895522388" y="317.059701493"/>
      <point x="959.671641791" y="393.0"/>
      <point x="1094" y="393" type="qcurve" smooth="yes"/>
      <point x="1101" y="393" type="line"/>
      <point x="1101" y="431" type="line"/>
      <point x="1090" y="431" type="line" smooth="yes"/>
      <point x="984.029850746" y="431.0"/>
      <point x="772.298507463" y="375.343283582"/>
      <point x="682" y="294" type="qcurve"/>
    </contour>
  </outline>
</glyph>
<glyph name="uni0A07" format="1">
  <advance width="1581"/>
  <unicode hex="0A07"/>
  <outline>
    <contour>
      <point x="1451" y="1248" type="move" name="mark0"/>
    </contour>
    <component base="uni0A72" xOffset="476"/>
    <component base="uni0A3F" xOffset="-1"/>
  </outline>
</glyph>
<glyph name="uni0A08" format="1">
  <advance width="1584"/>
  <unicode hex="0A08"/>
  <outline>
    <contour>
      <point x="1770" y="1248" type="move" name="mark0"/>
    </contour>
    <component base="uni0A72" xOffset="9"/>
    <component base="uni0A40" xOffset="1114"/>
  </outline>
</glyph>
<glyph name="uni0A0A" format="1">
  <advance width="1308"/>
  <unicode hex="0A0A"/>
  <outline>
    <contour>
      <point x="1568" y="1248" type="move" name="mark0"/>
    </contour>
    <component base="uni0A73" xOffset="20"/>
    <component base="uni0A42" xOffset="1217"/>
  </outline>
</glyph>
<glyph name="uni0A15" format="1">
  <advance width="1151"/>
  <unicode hex="0A15"/>
  <outline>
    <contour>
      <point x="817" y="447" type="line"/>
      <point x="800" y="412" type="line"/>
      <point x="807" y="398" type="line" smooth="yes"/>
      <point x="852.52238806" y="307.701492537"/>
      <point x="913.343283582" y="136.910447761"/>
      <point x="932" y="19" type="qcurve" smooth="yes"/>
      <point x="935" y="0" type="line"/>
      <point x="972" y="4" type="line"/>
      <point x="967" y="31" type="line" smooth="yes"/>
      <point x="945.358208955" y="149.656716418"/>
      <point x="874.0" y="349.925373134"/>
      <point x="824" y="435" type="qcurve" smooth="yes"/>
    </contour>
    <contour>
      <point x="810" y="456" type="line"/>
      <point x="803" y="467" type="line" smooth="yes"/>
      <point x="741.059701493" y="564.014925373"/>
      <point x="547.970149254" y="690.0"/>
      <point x="442" y="690" type="qcurve" smooth="yes"/>
      <point x="296.47761194" y="690.0"/>
      <point x="152.0" y="530.014925373"/>
      <point x="152" y="433" type="qcurve" smooth="yes"/>
      <point x="152.0" y="330.014925373"/>
      <point x="309.955223881" y="147.0"/>
      <point x="451" y="147" type="qcurve" smooth="yes"/>
      <point x="644.28358209" y="147.0"/>
      <point x="918.0" y="528.686567164"/>
      <point x="918" y="866" type="qcurve" smooth="yes"/>
      <point x="918" y="951" type="line"/>
      <point x="883" y="951" type="line"/>
      <point x="883" y="856" type="line" smooth="yes"/>
      <point x="883.0" y="538.835820896"/>
      <point x="625.119402985" y="183.0"/>
      <point x="449" y="183" type="qcurve" smooth="yes"/>
      <point x="330.343283582" y="183.0"/>
      <point x="188.0" y="338.208955224"/>
      <point x="188" y="430" type="qcurve" smooth="yes"/>
      <point x="188.0" y="517.313432836"/>
      <point x="316.388059701" y="654.0"/>
      <point x="444" y="654" type="qcurve" smooth="yes"/>
      <point x="532.805970149" y="654.0"/>
      <point x="720.820895522" y="536.970149254"/>
      <point x="785" y="431" type="qcurve" smooth="yes"/>
      <point x="791" y="421" type="line"/>
    </contour>
    <contour>
      <point x="1151" y="920" type="line"/>
      <point x="1151" y="956" type="line"/>
      <point x="0" y="956" type="line"/>
      <point x="0" y="920" type="line"/>
    </contour>
  </outline>
</glyph>
<glyph name="uni0A18" format="1">
  <advance width="1452"/>
  <unicode hex="0A18"/>
  <outline>
    <contour>
      <point x="1049" y="215" type="line" smooth="yes"/>
      <point x="945.268656716" y="215.0"/>
      <point x="790.552238806" y="338.179104478"/>
      <point x="751" y="474" type="qcurve"/>
      <point x="751" y="913" type="line"/>
      <point x="713" y="913" type="line"/>
      <point x="714" y="479" type="line"/>
      <point x="678.179104478" y="342.432835821"/>
      <point x="521.029850746" y="209.0"/>
      <point x="427" y="209" type="qcurve" smooth="yes"/>
      <point x="426" y="209" type="line" smooth="yes"/>
      <point x="374.507462687" y="209.0"/>
      <point x="261.328358209" y="260.940298507"/>
      <point x="227" y="299" type="qcurve"/>
      <point x="234" y="274" type="line"/>
      <point x="247.432835821" y="337.432835821"/>
      <point x="293.253731343" y="554.164179104"/>
      <point x="294" y="587" type="qcurve"/>
      <point x="291.76119403" y="622.074626866"/>
      <point x="246.985074627" y="929.880597015"/>
      <point x="244" y="956" type="qcurve"/>
      <point x="208" y="956" type="line"/>
      <point x="216.955223881" y="893.313432836"/>
      <point x="256.507462687" y="617.388059701"/>
      <point x="258" y="595" type="qcurve"/>
      <point x="258.0" y="559.925373134"/>
      <point x="212.417910448" y="347.149253731"/>
      <point x="196" y="277" type="qcurve"/>
      <point x="231.820895522" y="237.447761194"/>
      <point x="362.567164179" y="173.0"/>
      <point x="426" y="173" type="qcurve" smooth="yes"/>
      <point x="427" y="173" type="line" smooth="yes"/>
      <point x="535.955223881" y="173.0"/>
      <point x="697.955223881" y="312.880597015"/>
      <point x="739" y="439" type="qcurve"/>
      <point x="726" y="439" type="line"/>
      <point x="769.28358209" y="308.402985075"/>
      <point x="934.074626866" y="179.0"/>
      <point x="1049" y="179" type="qcurve" smooth="yes"/>
      <point x="1050" y="179" type="line" smooth="yes"/>
      <point x="1073.13432836" y="179.0"/>
      <point x="1161.35820896" y="191.537313433"/>
      <point x="1183" y="199" type="qcurve" smooth="yes"/>
      <point x="1213" y="209" type="line"/>
      <point x="1213" y="245" type="line"/>
      <point x="1183" y="235" type="line" smooth="yes"/>
      <point x="1154.64179104" y="226.044776119"/>
      <point x="1073.88059701" y="215.0"/>
      <point x="1050" y="215" type="qcurve" smooth="yes"/>
    </contour>
    <contour>
      <point x="1218" y="956" type="line"/>
      <point x="1183" y="956" type="line"/>
      <point x="1183" y="0" type="line"/>
      <point x="1218" y="0" type="line"/>
    </contour>
    <contour>
      <point x="1452" y="920" type="line"/>
      <point x="1452" y="956" type="line"/>
      <point x="1185" y="956" type="line"/>
      <point x="1185" y="920" type="line"/>
    </contour>
    <contour>
      <point x="245" y="920" type="line"/>
      <point x="241" y="956" type="line"/>
      <point x="0" y="956" type="line"/>
      <point x="0" y="920" type="line"/>
    </contour>
  </outline>
</glyph>
<glyph name="uni0A1A" format="1">
  <advance width="1094"/>
  <unicode hex="0A1A"/>
  <outline>
    <contour>
      <point x="1094" y="920" type="line"/>
      <point x="1094" y="956" type="line"/>
      <point x="0" y="956" type="line"/>
      <point x="0" y="920" type="line"/>
    </contour>
    <contour>
      <point x="680" y="15" type="line"/>
      <point x="762.089552239" y="15.0"/>
      <point x="860.0" y="120.582089552"/>
      <point x="860" y="237" type="qcurve" smooth="yes"/>
      <point x="860" y="950" type="line"/>
      <point x="825" y="950" type="line"/>
      <point x="825" y="241" type="line" smooth="yes"/>
      <point x="825.0" y="141.746268657"/>
      <point x="746.432835821" y="51.0"/>
      <point x="683" y="51" type="qcurve"/>
      <point x="682" y="51" type="line"/>
      <point x="545.432835821" y="51.0"/>
      <point x="268.298507463" y="336.791044776"/>
      <point x="228" y="545" type="qcurve" smooth="yes"/>
      <point x="196" y="711" type="line"/>
      <point x="158" y="701" type="line"/>
      <point x="184" y="569" type="line" smooth="yes"/>
      <point x="230.268656716" y="336.164179104"/>
      <point x="521.537313433" y="15.0"/>
      <point x="679" y="15" type="qcurve"/>
    </contour>
    <contour>
      <point x="855" y="480" type="line"/>
      <point x="855" y="516" type="line"/>
      <point x="212" y="516" type="line"/>
      <point x="212" y="480" type="line"/>
    </contour>
  </outline>
</glyph>
<glyph name="uni0A1C" format="1">
  <advance width="1078"/>
  <unicode hex="0A1C"/>
  <outline>
    <contour>
      <point x="266" y="493" type="line"/>
      <point x="266" y="457" type="line"/>
      <point x="839" y="457" type="line"/>
      <point x="839" y="493" type="line"/>
    </contour>
    <contour>
      <point x="261" y="493" type="line"/>
      <point x="261" y="0" type="line"/>
      <point x="296" y="0" type="line"/>
      <point x="296" y="493" type="line"/>
    </contour>
    <contour>
      <point x="295" y="477" type="line"/>
      <point x="196" y="685" type="line"/>
      <point x="163" y="666" type="line"/>
      <point x="267" y="462" type="line"/>
    </contour>
    <contour>
      <point x="844" y="951" type="line"/>
      <point x="809" y="951" type="line"/>
      <point x="809" y="0" type="line"/>
      <point x="844" y="0" type="line"/>
    </contour>
    <contour>
      <point x="1078" y="920" type="line"/>
      <point x="1078" y="956" type="line"/>
      <point x="0" y="956" type="line"/>
      <point x="0" y="920" type="line"/>
    </contour>
  </outline>
</glyph>
<glyph name="uni0A23" format="1">
  <advance width="1072"/>
  <unicode hex="0A23"/>
  <outline>
    <contour>
      <point x="646" y="388" type="line"/>
      <point x="646" y="424" type="line"/>
      <point x="587" y="424" type="line" smooth="yes"/>
      <point x="447.447761194" y="424.0"/>
      <point x="251.71641791" y="304.940298507"/>
      <point x="195" y="243" type="qcurve"/>
      <point x="245.0" y="145.985074627"/>
      <point x="509.71641791" y="15.0"/>
      <point x="603" y="15" type="qcurve" smooth="yes"/>
      <point x="682.850746269" y="15.0"/>
      <point x="840.268656716" y="84.1641791045"/>
      <point x="894" y="117" type="qcurve"/>
      <point x="884" y="151" type="line"/>
      <point x="836.23880597" y="115.179104478"/>
      <point x="663.71641791" y="51.0"/>
      <point x="607" y="51" type="qcurve" smooth="yes"/>
      <point x="513.71641791" y="51.0"/>
      <point x="280.507462687" y="168.656716418"/>
      <point x="232" y="250" type="qcurve"/>
      <point x="232" y="221" type="line"/>
      <point x="263.343283582" y="265.776119403"/>
      <point x="452.194029851" y="388.0"/>
      <point x="591" y="388" type="qcurve" smooth="yes"/>
    </contour>
    <contour>
      <point x="616" y="388" type="line"/>
      <point x="653" y="388" type="line"/>
      <point x="653" y="646" type="line"/>
      <point x="616" y="646" type="line"/>
    </contour>
    <contour>
      <point x="1073" y="920" type="line"/>
      <point x="1073" y="956" type="line"/>
      <point x="-28" y="956" type="line"/>
      <point x="-28" y="920" type="line"/>
    </contour>
    <contour>
      <point x="312" y="954" type="line"/>
      <point x="271" y="954" type="line"/>
      <point x="286" y="921" type="line" smooth="yes"/>
      <point x="337.492537313" y="808.313432836"/>
      <point x="620.104477612" y="609.402985075"/>
      <point x="841" y="540" type="qcurve" smooth="yes"/>
      <point x="939" y="512" type="line"/>
      <point x="947" y="547" type="line"/>
      <point x="849" y="575" type="line" smooth="yes"/>
      <point x="648.253731343" y="637.686567164"/>
      <point x="370.537313433" y="826.223880597"/>
      <point x="328" y="921" type="qcurve" smooth="yes"/>
    </contour>
  </outline>
</glyph>
<glyph name="uni0A25" format="1">
  <advance width="1099"/>
  <unicode hex="0A25"/>
  <outline>
    <contour>
      <point x="860" y="596" type="line"/>
      <point x="245" y="596" type="line"/>
      <point x="245" y="560" type="line"/>
      <point x="860" y="560" type="line"/>
    </contour>
    <contour>
      <point x="865" y="951" type="line"/>
      <point x="830" y="951" type="line"/>
      <point x="830" y="0" type="line"/>
      <point x="865" y="0" type="line"/>
    </contour>
    <contour>
      <point x="1100" y="920" type="line"/>
      <point x="1100" y="956" type="line"/>
      <point x="-1" y="956" type="line"/>
      <point x="-1" y="920" type="line"/>
    </contour>
    <contour>
      <point x="188" y="956" type="line"/>
      <point x="196.955223881" y="893.313432836"/>
      <point x="236.507462687" y="617.388059701"/>
      <point x="238" y="595" type="qcurve"/>
      <point x="238.0" y="559.925373134"/>
      <point x="192.417910448" y="347.149253731"/>
      <point x="176" y="277" type="qcurve"/>
      <point x="237.194029851" y="209.835820896"/>
      <point x="438.0" y="124.0"/>
      <point x="538" y="124" type="qcurve"/>
      <point x="539" y="124" type="line"/>
      <point x="615.119402985" y="124.0"/>
      <point x="772.537313433" y="148.835820896"/>
      <point x="830" y="166" type="qcurve" smooth="yes"/>
      <point x="860" y="175" type="line"/>
      <point x="860" y="214" type="line"/>
      <point x="830" y="204" type="line" smooth="yes"/>
      <point x="764.328358209" y="182.358208955"/>
      <point x="612.880597015" y="160.0"/>
      <point x="539" y="160" type="qcurve"/>
      <point x="538" y="160" type="line"/>
      <point x="453.671641791" y="160.0"/>
      <point x="264.462686567" y="237.059701493"/>
      <point x="207" y="299" type="qcurve"/>
      <point x="214" y="274" type="line"/>
      <point x="227.432835821" y="337.432835821"/>
      <point x="273.253731343" y="554.164179104"/>
      <point x="274" y="587" type="qcurve"/>
      <point x="271.76119403" y="622.074626866"/>
      <point x="226.985074627" y="929.880597015"/>
      <point x="224" y="956" type="qcurve"/>
    </contour>
  </outline>
</glyph>
<glyph name="uni0A26" format="1">
  <advance width="1108"/>
  <unicode hex="0A26"/>
  <outline>
    <contour>
      <point x="1108" y="920" type="line"/>
      <point x="1108" y="956" type="line"/>
      <point x="0" y="956" type="line"/>
      <point x="0" y="920" type="line"/>
    </contour>
    <contour>
      <point x="839" y="509" type="line"/>
      <point x="874" y="509" type="line"/>
      <point x="874" y="952" type="line"/>
      <point x="839" y="952" type="line"/>
    </contour>
    <contour>
      <point x="874" y="499" type="line"/>
      <point x="874" y="535" type="line"/>
      <point x="221" y="535" type="line"/>
      <point x="221" y="499" type="line"/>
    </contour>
    <contour>
      <point x="206" y="719" type="line"/>
      <point x="168" y="708" type="line"/>
      <point x="207" y="528" type="line" smooth="yes"/>
      <point x="261.47761194" y="277.253731343"/>
      <point x="549.656716418" y="24.0"/>
      <point x="731" y="24" type="qcurve" smooth="yes"/>
      <point x="732" y="24" type="line"/>
      <point x="806.626865672" y="24.0"/>
      <point x="923.955223881" y="36.8059701493"/>
      <point x="965" y="48" type="qcurve"/>
      <point x="960" y="84" type="line"/>
      <point x="912.985074627" y="72.0597014925"/>
      <point x="810.402985075" y="60.0"/>
      <point x="741" y="60" type="qcurve" smooth="yes"/>
      <point x="740" y="60" type="line"/>
      <point x="569.104477612" y="60.0"/>
      <point x="291.014925373" y="299.656716418"/>
      <point x="244" y="531" type="qcurve" smooth="yes"/>
    </contour>
  </outline>
</glyph>
<glyph name="uni0A2B" format="1">
  <advance width="1084"/>
  <unicode hex="0A2B"/>
  <outline>
    <contour>
      <point x="384" y="121" type="line"/>
      <point x="399" y="143" type="line" smooth="yes"/>
      <point x="467.656716418" y="243.746268657"/>
      <point x="638.373134328" y="349.0"/>
      <point x="713" y="349" type="qcurve" smooth="yes"/>
      <point x="714" y="349" type="line"/>
      <point x="802.805970149" y="349.0"/>
      <point x="892.0" y="259.731343284"/>
      <point x="892" y="206" type="qcurve" smooth="yes"/>
      <point x="892" y="205" type="line"/>
      <point x="892.0" y="137.089552239"/>
      <point x="789.552238806" y="51.0"/>
      <point x="700" y="51" type="qcurve" smooth="yes"/>
      <point x="699" y="51" type="line"/>
      <point x="508.701492537" y="51.0"/>
      <point x="205.0" y="299.23880597"/>
      <point x="205" y="447" type="qcurve" smooth="yes"/>
      <point x="205" y="448" type="line" smooth="yes"/>
      <point x="205.0" y="527.850746269"/>
      <point x="313.820895522" y="630.0"/>
      <point x="428" y="630" type="qcurve" smooth="yes"/>
      <point x="845" y="630" type="line"/>
      <point x="845" y="666" type="line"/>
      <point x="417" y="666" type="line" smooth="yes"/>
      <point x="291.626865672" y="666.0"/>
      <point x="168.0" y="544.552238806"/>
      <point x="168" y="455" type="qcurve" smooth="yes"/>
      <point x="168" y="454" type="line" smooth="yes"/>
      <point x="168.0" y="275.641791045"/>
      <point x="499.731343284" y="15.0"/>
      <point x="696" y="15" type="qcurve" smooth="yes"/>
      <point x="697" y="15" type="line"/>
      <point x="811.925373134" y="15.0"/>
      <point x="928.0" y="128.388059701"/>
      <point x="928" y="206" type="qcurve" smooth="yes"/>
      <point x="928" y="207" type="line"/>
      <point x="928.0" y="273.417910448"/>
      <point x="822.462686567" y="385.0"/>
      <point x="715" y="385" type="qcurve" smooth="yes"/>
      <point x="714" y="385" type="line"/>
      <point x="622.208955224" y="385.0"/>
      <point x="442.880597015" y="267.492537313"/>
      <point x="369" y="166" type="qcurve" smooth="yes"/>
      <point x="353" y="144" type="line"/>
    </contour>
    <contour>
      <point x="1084" y="920" type="line"/>
      <point x="1084" y="956" type="line"/>
      <point x="0" y="956" type="line"/>
      <point x="0" y="920" type="line"/>
    </contour>
    <contour>
      <point x="815" y="630" type="line"/>
      <point x="850" y="630" type="line"/>
      <point x="850" y="950" type="line"/>
      <point x="815" y="950" type="line"/>
    </contour>
  </outline>
</glyph>
<glyph name="uni0A2E" format="1">
  <advance width="1171"/>
  <unicode hex="0A2E"/>
  <outline>
    <contour>
      <point x="385.298507463" y="506.940298507"/>
      <point x="323.164179104" y="847.611940299"/>
      <point x="306" y="920" type="qcurve" smooth="yes"/>
      <point x="301" y="941" type="line"/>
      <point x="265" y="941" type="line"/>
      <point x="269" y="920" type="line" smooth="yes"/>
      <point x="280.940298507" y="858.805970149"/>
      <point x="350.28358209" y="499.268656716"/>
      <point x="357" y="453" type="qcurve"/>
      <point x="345.059701493" y="407.47761194"/>
      <point x="231.671641791" y="134.343283582"/>
      <point x="216" y="103" type="qcurve"/>
      <point x="257" y="90" type="line"/>
      <point x="272.671641791" y="124.328358209"/>
      <point x="380.820895522" y="390.52238806"/>
      <point x="395" y="445" type="qcurve"/>
    </contour>
    <contour>
      <point x="373" y="472" type="line"/>
      <point x="373" y="436" type="line"/>
      <point x="933" y="436" type="line"/>
      <point x="933" y="472" type="line"/>
    </contour>
    <contour>
      <point x="938" y="951" type="line"/>
      <point x="903" y="951" type="line"/>
      <point x="903" y="0" type="line"/>
      <point x="938" y="0" type="line"/>
    </contour>
    <contour>
      <point x="1171" y="920" type="line"/>
      <point x="1171" y="956" type="line"/>
      <point x="901" y="956" type="line"/>
      <point x="901" y="920" type="line"/>
    </contour>
    <contour>
      <point x="306" y="920" type="line"/>
      <point x="298" y="956" type="line"/>
      <point x="0" y="956" type="line"/>
      <point x="0" y="920" type="line"/>
    </contour>
  </outline>
</glyph>
<glyph name="uni0A38" format="1">
  <advance width="1173"/>
  <unicode hex="0A38"/>
  <outline>
    <contour>
      <point x="386.298507463" y="506.940298507"/>
      <point x="324.164179104" y="847.611940299"/>
      <point x="307" y="920" type="qcurve" smooth="yes"/>
      <point x="302" y="941" type="line"/>
      <point x="266" y="941" type="line"/>
      <point x="270" y="920" type="line" smooth="yes"/>
      <point x="281.940298507" y="858.805970149"/>
      <point x="351.28358209" y="499.268656716"/>
      <point x="358" y="453" type="qcurve"/>
      <point x="346.059701493" y="407.47761194"/>
      <point x="232.671641791" y="134.343283582"/>
      <point x="217" y="103" type="qcurve"/>
      <point x="258" y="90" type="line"/>
      <point x="273.671641791" y="124.328358209"/>
      <point x="381.820895522" y="390.52238806"/>
      <point x="396" y="445" type="qcurve"/>
    </contour>
    <contour>
      <point x="374" y="472" type="line"/>
      <point x="374" y="436" type="line"/>
      <point x="934" y="436" type="line"/>
      <point x="934" y="472" type="line"/>
    </contour>
    <contour>
      <point x="939" y="951" type="line"/>
      <point x="904" y="951" type="line"/>
      <point x="904" y="0" type="line"/>
      <point x="939" y="0" type="line"/>
    </contour>
    <contour>
      <point x="1172" y="920" type="line"/>
      <point x="1172" y="956" type="line"/>
      <point x="1" y="956" type="line"/>
      <point x="1" y="920" type="line"/>
    </contour>
  </outline>
</glyph>
<glyph name="uni0A39" format="1">
  <advance width="1097"/>
  <unicode hex="0A39"/>
  <outline>
    <contour>
      <point x="1097" y="920" type="line"/>
      <point x="1097" y="956" type="line"/>
      <point x="0" y="956" type="line"/>
      <point x="0" y="920" type="line"/>
    </contour>
    <contour>
      <point x="432" y="589" type="line"/>
      <point x="383" y="589" type="line" smooth="yes"/>
      <point x="280.76119403" y="589.0"/>
      <point x="192.0" y="506.149253731"/>
      <point x="192" y="436" type="qcurve"/>
      <point x="192" y="435" type="line"/>
      <point x="192.0" y="294.701492537"/>
      <point x="521.298507463" y="15.0"/>
      <point x="681" y="15" type="qcurve"/>
      <point x="682" y="15" type="line"/>
      <point x="764.089552239" y="15.0"/>
      <point x="863.0" y="120.582089552"/>
      <point x="863" y="237" type="qcurve" smooth="yes"/>
      <point x="863" y="950" type="line"/>
      <point x="828" y="950" type="line"/>
      <point x="828" y="241" type="line" smooth="yes"/>
      <point x="828.0" y="141.746268657"/>
      <point x="748.432835821" y="51.0"/>
      <point x="685" y="51" type="qcurve"/>
      <point x="684" y="51" type="line"/>
      <point x="547.432835821" y="51.0"/>
      <point x="230.0" y="304.149253731"/>
      <point x="230" y="434" type="qcurve"/>
      <point x="230" y="435" type="line"/>
      <point x="230.0" y="488.731343284"/>
      <point x="296.701492537" y="553.0"/>
      <point x="387" y="553" type="qcurve" smooth="yes"/>
      <point x="432" y="553" type="line"/>
    </contour>
  </outline>
</glyph>
<glyph name="uni0A3E" format="1">
  <advance width="471"/>
  <unicode hex="0A3E"/>
  <outline>
    <contour>
      <point x="471" y="920" type="line"/>
      <point x="471" y="956" type="line"/>
      <point x="0" y="956" type="line"/>
      <point x="0" y="920" type="line"/>
    </contour>
    <contour>
      <point x="218" y="956" type="line"/>
      <point x="218" y="311" type="line"/>
      <point x="253" y="311" type="line"/>
      <point x="253" y="956" type="line"/>
    </contour>
  </outline>
</glyph>
<glyph name="uni0A3F" format="1">
  <advance width="471"/>
  <unicode hex="0A3F"/>
  <outline>
    <contour>
      <point x="219" y="0" type="line"/>
      <point x="254" y="0" type="line"/>
      <point x="254" y="1097" type="line" smooth="yes"/>
      <point x="254.0" y="1276.10447761"/>
      <point x="393.179104478" y="1462.0"/>
      <point x="529" y="1462" type="qcurve" smooth="yes"/>
      <point x="627.507462687" y="1462.0"/>
      <point x="760.134328358" y="1343.31343284"/>
      <point x="787" y="1256" type="qcurve" smooth="yes"/>
      <point x="794" y="1233" type="line"/>
      <point x="829" y="1234" type="line"/>
      <point x="822" y="1259" type="line" smooth="yes"/>
      <point x="792.149253731" y="1364.97014925"/>
      <point x="633.71641791" y="1499.0"/>
      <point x="527" y="1499" type="qcurve" smooth="yes"/>
      <point x="379.985074627" y="1499.0"/>
      <point x="219.0" y="1298.82089552"/>
      <point x="219" y="1113" type="qcurve" smooth="yes"/>
    </contour>
    <contour>
      <point x="472" y="920" type="line"/>
      <point x="472" y="956" type="line"/>
      <point x="1" y="956" type="line"/>
      <point x="1" y="920" type="line"/>
    </contour>
  </outline>
</glyph>
<glyph name="uni0A40" format="1">
  <advance width="472"/>
  <unicode hex="0A40"/>
  <outline>
    <contour>
      <point x="254" y="1113" type="line" smooth="yes"/>
      <point x="254.0" y="1298.82089552"/>
      <point x="93.0149253731" y="1499.0"/>
      <point x="-54" y="1499" type="qcurve" smooth="yes"/>
      <point x="-160.71641791" y="1499.0"/>
      <point x="-319.149253731" y="1364.97014925"/>
      <point x="-349" y="1259" type="qcurve" smooth="yes"/>
      <point x="-356" y="1234" type="line"/>
      <point x="-321" y="1233" type="line"/>
      <point x="-314" y="1256" type="line" smooth="yes"/>
      <point x="-287.134328358" y="1343.31343284"/>
      <point x="-154.507462687" y="1462.0"/>
      <point x="-56" y="1462" type="qcurve" smooth="yes"/>
      <point x="79.8208955224" y="1462.0"/>
      <point x="219.0" y="1276.10447761"/>
      <point x="219" y="1097" type="qcurve" smooth="yes"/>
      <point x="219" y="0" type="line"/>
      <point x="254" y="0" type="line"/>
    </contour>
    <contour>
      <point x="472" y="920" type="line"/>
      <point x="472" y="956" type="line"/>
      <point x="1" y="956" type="line"/>
      <point x="1" y="920" type="line"/>
    </contour>
  </outline>
</glyph>
<glyph name="uni0A41" format="1">
  <advance width="7"/>
  <unicode hex="0A41"/>
  <outline>
    <contour>
      <point x="-913" y="-229" type="line"/>
      <point x="-852.552238806" y="-250.641791045"/>
      <point x="-671.23880597" y="-294.0"/>
      <point x="-569" y="-294" type="qcurve" smooth="yes"/>
      <point x="-464.52238806" y="-294.0"/>
      <point x="-269.671641791" y="-252.134328358"/>
      <point x="-204" y="-229" type="qcurve"/>
      <point x="-204" y="-194" type="line"/>
      <point x="-272.656716418" y="-215.641791045"/>
      <point x="-451.089552239" y="-258.0"/>
      <point x="-569" y="-258" type="qcurve" smooth="yes"/>
      <point x="-687.656716418" y="-258.0"/>
      <point x="-843.597014925" y="-215.641791045"/>
      <point x="-913" y="-194" type="qcurve"/>
    </contour>
  </outline>
</glyph>
<glyph name="uni0A47" format="1">
  <advance width="10"/>
  <unicode hex="0A47"/>
  <outline>
    <contour>
      <point x="-341" y="1437" type="line"/>
      <point x="-266" y="945" type="line"/>
      <point x="-230" y="945" type="line"/>
      <point x="-305" y="1445" type="line"/>
    </contour>
    <contour>
      <point x="-612" y="944" type="line"/>
      <point x="-687" y="1443" type="line"/>
      <point x="-723" y="1435" type="line"/>
      <point x="-648" y="944" type="line"/>
    </contour>
  </outline>
</glyph>
<glyph name="uni0A4B" format="1">
  <advance width="4"/>
  <unicode hex="0A4B"/>
  <outline>
    <contour>
      <point x="-496.298507463" y="1405.0"/>
      <point x="-609.626865672" y="1325.0"/>
      <point x="-685" y="1325" type="qcurve" smooth="yes"/>
      <point x="-720.074626866" y="1325.0"/>
      <point x="-789.611940299" y="1372.52238806"/>
      <point x="-812" y="1427" type="qcurve" smooth="yes"/>
      <point x="-835" y="1483" type="line"/>
      <point x="-864" y="1463" type="line"/>
      <point x="-847" y="1420" type="line" smooth="yes"/>
      <point x="-821.626865672" y="1356.56716418"/>
      <point x="-728.507462687" y="1289.0"/>
      <point x="-680" y="1289" type="qcurve" smooth="yes"/>
      <point x="-603.880597015" y="1289.0"/>
      <point x="-491.835820896" y="1369.0"/>
      <point x="-409" y="1369" type="qcurve" smooth="yes"/>
      <point x="-335.119402985" y="1369.0"/>
      <point x="-267.0" y="1290.19402985"/>
      <point x="-267" y="1229" type="qcurve" smooth="yes"/>
      <point x="-267" y="1146" type="line"/>
      <point x="-234" y="1146" type="line"/>
      <point x="-234" y="1232" type="line" smooth="yes"/>
      <point x="-234.0" y="1309.6119403"/>
      <point x="-324.656716418" y="1405.0"/>
      <point x="-406" y="1405" type="qcurve" smooth="yes"/>
    </contour>
  </outline>
</glyph>
<glyph name="uni0A51" format="1">
  <advance width="2"/>
  <unicode hex="0A51"/>
  <outline>
    <contour>
      <point x="-373.985074627" y="-106.731343284"/>
      <point x="-390.28358209" y="-119.044776119"/>
      <point x="-397" y="-128" type="qcurve"/>
      <point x="-282.820895522" y="-310.835820896"/>
      <point x="-90.8805970149" y="-424.223880597"/>
      <point x="33" y="-419" type="qcurve"/>
      <point x="49" y="-373" type="line"/>
      <point x="-86.8208955224" y="-382.701492537"/>
      <point x="-262.791044776" y="-270.910447761"/>
      <point x="-371" y="-103" type="qcurve"/>
    </contour>
  </outline>
</glyph>
<glyph name="uni0A67" format="1">
  <advance width="868"/>
  <unicode hex="0A67"/>
  <outline>
    <contour>
      <point x="627" y="299" type="line" smooth="yes"/>
      <point x="627.0" y="210.940298507"/>
      <point x="669.253731343" y="92.7611940299"/>
      <point x="720" y="45" type="qcurve" smooth="yes"/>
      <point x="769" y="1" type="line"/>
      <point x="793" y="29" type="line"/>
      <point x="740" y="73" type="line" smooth="yes"/>
      <point x="701.940298507" y="107.328358209"/>
      <point x="661.253731343" y="208.940298507"/>
      <point x="662" y="297" type="qcurve" smooth="yes"/>
      <point x="663" y="645" type="line" smooth="yes"/>
      <point x="663.746268657" y="768.880597015"/>
      <point x="523.388059701" y="919.0"/>
      <point x="401" y="919" type="qcurve" smooth="yes"/>
      <point x="299.507462687" y="919.0"/>
      <point x="164.0" y="782.970149254"/>
      <point x="164" y="677" type="qcurve" smooth="yes"/>
      <point x="164.0" y="569.537313433"/>
      <point x="312.492537313" y="434.0"/>
      <point x="411" y="434" type="qcurve" smooth="yes"/>
      <point x="485.626865672" y="434.0"/>
      <point x="613.447761194" y="492.253731343"/>
      <point x="653" y="543" type="qcurve"/>
      <point x="637" y="573" type="line"/>
      <point x="592.223880597" y="522.253731343"/>
      <point x="476.402985075" y="471.0"/>
      <point x="407" y="471" type="qcurve" smooth="yes"/>
      <point x="326.402985075" y="471.0"/>
      <point x="200.0" y="588.179104478"/>
      <point x="200" y="674" type="qcurve" smooth="yes"/>
      <point x="200.0" y="762.805970149"/>
      <point x="316.432835821" y="882.0"/>
      <point x="403" y="882" type="qcurve" smooth="yes"/>
      <point x="511.208955224" y="882.0"/>
      <point x="627.0" y="743.223880597"/>
      <point x="627" y="638" type="qcurve" smooth="yes"/>
    </contour>
  </outline>
</glyph>
<glyph name="uni0A6A" format="1">
  <advance width="1074"/>
  <unicode hex="0A6A"/>
  <outline>
    <contour>
      <point x="271.0" y="159.388059701"/>
      <point x="396.910447761" y="-3.0"/>
      <point x="529" y="-3" type="qcurve" smooth="yes"/>
      <point x="666.313432836" y="-3.0"/>
      <point x="788.0" y="156.179104478"/>
      <point x="788" y="242" type="qcurve" smooth="yes"/>
      <point x="788.0" y="302.447761194"/>
      <point x="729.701492537" y="429.298507463"/>
      <point x="670" y="489" type="qcurve" smooth="yes"/>
      <point x="561.044776119" y="597.955223881"/>
      <point x="292.313432836" y="859.089552239"/>
      <point x="155" y="927" type="qcurve"/>
      <point x="133" y="900" type="line"/>
      <point x="250.910447761" y="838.059701493"/>
      <point x="524.328358209" y="581.671641791"/>
      <point x="640" y="466" type="qcurve" smooth="yes"/>
      <point x="695.223880597" y="410.776119403"/>
      <point x="750.0" y="290.014925373"/>
      <point x="750" y="243" type="qcurve" smooth="yes"/>
      <point x="750.0" y="161.656716418"/>
      <point x="638.701492537" y="33.0"/>
      <point x="529" y="33" type="qcurve" smooth="yes"/>
      <point x="422.28358209" y="33.0"/>
      <point x="309.0" y="163.880597015"/>
      <point x="309" y="240" type="qcurve" smooth="yes"/>
      <point x="309.0" y="297.462686567"/>
      <point x="364.507462687" y="415.507462687"/>
      <point x="416" y="467" type="qcurve" smooth="yes"/>
      <point x="517.492537313" y="568.492537313"/>
      <point x="783.537313433" y="813.179104478"/>
      <point x="941" y="899" type="qcurve"/>
      <point x="923" y="923" type="line"/>
      <point x="755.089552239" y="840.910447761"/>
      <point x="491.985074627" y="592.985074627"/>
      <point x="389" y="490" type="qcurve" smooth="yes"/>
      <point x="329.298507463" y="430.298507463"/>
      <point x="271.0" y="310.134328358"/>
      <point x="271" y="237" type="qcurve" smooth="yes"/>
    </contour>
  </outline>
</glyph>
<glyph name="uni0A6B" format="1">
  <advance width="953"/>
  <unicode hex="0A6B"/>
  <outline>
    <contour>
      <point x="712" y="919" type="line"/>
      <point x="677" y="919" type="line"/>
      <point x="677" y="0" type="line"/>
      <point x="712" y="0" type="line"/>
    </contour>
    <contour>
      <point x="151" y="919" type="line"/>
      <point x="178.611940299" y="774.223880597"/>
      <point x="195.0" y="618.208955224"/>
      <point x="195" y="610" type="qcurve" smooth="yes"/>
      <point x="193.507462687" y="556.268656716"/>
      <point x="166.910447761" y="429.373134328"/>
      <point x="149" y="354" type="qcurve"/>
      <point x="203.47761194" y="276.388059701"/>
      <point x="376.865671642" y="194.0"/>
      <point x="450" y="194" type="qcurve" smooth="yes"/>
      <point x="518.656716418" y="194.0"/>
      <point x="641.223880597" y="229.865671642"/>
      <point x="686" y="253" type="qcurve" smooth="yes"/>
      <point x="711" y="266" type="line"/>
      <point x="711" y="306" type="line"/>
      <point x="686" y="292" type="line" smooth="yes"/>
      <point x="637.492537313" y="265.134328358"/>
      <point x="521.895522388" y="230.0"/>
      <point x="451" y="230" type="qcurve" smooth="yes"/>
      <point x="381.597014925" y="230.0"/>
      <point x="227.059701493" y="304.298507463"/>
      <point x="189" y="364" type="qcurve"/>
      <point x="206.910447761" y="440.865671642"/>
      <point x="229.253731343" y="563.298507463"/>
      <point x="230" y="623" type="qcurve" smooth="yes"/>
      <point x="230.0" y="637.179104478"/>
      <point x="214.611940299" y="766.76119403"/>
      <point x="187" y="919" type="qcurve"/>
    </contour>
  </outline>
</glyph>
<glyph name="uni0A6C" format="1">
  <advance width="947"/>
  <unicode hex="0A6C"/>
  <outline>
    <contour>
      <point x="168" y="2" type="line"/>
      <point x="207" y="6" type="line" smooth="yes"/>
      <point x="475.656716418" y="33.6119402985"/>
      <point x="795.0" y="379.52238806"/>
      <point x="795" y="584" type="qcurve" smooth="yes"/>
      <point x="795.0" y="720.567164179"/>
      <point x="635.71641791" y="920.0"/>
      <point x="479" y="920" type="qcurve" smooth="yes"/>
      <point x="362.582089552" y="920.0"/>
      <point x="211.0" y="763.28358209"/>
      <point x="211" y="670" type="qcurve" smooth="yes"/>
      <point x="211.0" y="603.582089552"/>
      <point x="284.149253731" y="468.507462687"/>
      <point x="364" y="420" type="qcurve"/>
      <point x="386" y="447" type="line"/>
      <point x="316.597014925" y="486.552238806"/>
      <point x="247.0" y="609.537313433"/>
      <point x="247" y="667" type="qcurve" smooth="yes"/>
      <point x="247.0" y="755.059701493"/>
      <point x="380.776119403" y="884.0"/>
      <point x="486" y="884" type="qcurve" smooth="yes"/>
      <point x="614.358208955" y="884.0"/>
      <point x="760.0" y="716.358208955"/>
      <point x="760" y="588" type="qcurve" smooth="yes"/>
      <point x="760.0" y="407.402985075"/>
      <point x="459.432835821" y="56.4179104478"/>
      <point x="196" y="40" type="qcurve" smooth="yes"/>
      <point x="163" y="38" type="line"/>
    </contour>
  </outline>
</glyph>
<glyph name="uni0A6F" format="1">
  <advance width="1136"/>
  <unicode hex="0A6F"/>
  <outline>
    <contour>
      <point x="223" y="670" type="line"/>
      <point x="234" y="605" type="line" smooth="yes"/>
      <point x="287.731343284" y="293.059701493"/>
      <point x="548.985074627" y="0.0"/>
      <point x="746" y="0" type="qcurve" smooth="yes"/>
      <point x="798.23880597" y="0.0"/>
      <point x="905.71641791" y="14.8059701493"/>
      <point x="949" y="26" type="qcurve"/>
      <point x="940" y="62" type="line"/>
      <point x="892.985074627" y="49.3134328358"/>
      <point x="790.776119403" y="38.0"/>
      <point x="746" y="38" type="qcurve" smooth="yes"/>
      <point x="590.776119403" y="38.0"/>
      <point x="330.447761194" y="272.910447761"/>
      <point x="270" y="605" type="qcurve" smooth="yes"/>
      <point x="258" y="670" type="line"/>
    </contour>
    <contour>
      <point x="908" y="678" type="line"/>
      <point x="908" y="714" type="line"/>
      <point x="230" y="714" type="line"/>
      <point x="231" y="678" type="line"/>
    </contour>
    <contour>
      <point x="259" y="670" type="line"/>
      <point x="250.044776119" y="710.298507463"/>
      <point x="240.970149254" y="883.194029851"/>
      <point x="235" y="922" type="qcurve"/>
      <point x="196" y="916" type="line"/>
      <point x="201.223880597" y="881.671641791"/>
      <point x="215.044776119" y="703.313432836"/>
      <point x="224" y="666" type="qcurve"/>
    </contour>
    <contour>
      <point x="790" y="695" type="line"/>
      <point x="798.955223881" y="695.0"/>
      <point x="827.029850746" y="695.0"/>
      <point x="833" y="695" type="qcurve"/>
      <point x="818" y="711" type="line"/>
      <point x="804" y="735" type="line" smooth="yes"/>
      <point x="786.089552239" y="764.850746269"/>
      <point x="759.0" y="826.671641791"/>
      <point x="759" y="861" type="qcurve" smooth="yes"/>
      <point x="759.0" y="914.731343284"/>
      <point x="806.059701493" y="974.0"/>
      <point x="868" y="974" type="qcurve" smooth="yes"/>
      <point x="928" y="974" type="line"/>
      <point x="923" y="1006" type="line"/>
      <point x="860" y="1005" type="line" smooth="yes"/>
      <point x="787.611940299" y="1003.50746269"/>
      <point x="725.0" y="930.447761194"/>
      <point x="725" y="870" type="qcurve" smooth="yes"/>
      <point x="725.0" y="824.47761194"/>
      <point x="755.597014925" y="754.582089552"/>
      <point x="775" y="721" type="qcurve" smooth="yes"/>
    </contour>
  </outline>
</glyph>
<glyph name="uni0A70" format="1">
  <advance width="0"/>
  <unicode hex="0A70"/>
  <outline>
    <contour>
      <point x="-357" y="1143" type="line"/>
      <point x="-381.626865672" y="1181.80597015"/>
      <point x="-418.0" y="1250.68656716"/>
      <point x="-418" y="1288" type="qcurve" smooth="yes"/>
      <point x="-418.0" y="1357.40298507"/>
      <point x="-334.388059701" y="1443.0"/>
      <point x="-262" y="1443" type="qcurve" smooth="yes"/>
      <point x="-186.626865672" y="1443.0"/>
      <point x="-101.0" y="1356.65671642"/>
      <point x="-101" y="1288" type="qcurve" smooth="yes"/>
      <point x="-101.0" y="1254.41791045"/>
      <point x="-130.611940299" y="1181.80597015"/>
      <point x="-153" y="1143" type="qcurve"/>
      <point x="-112" y="1143" type="line"/>
      <point x="-93.3432835821" y="1180.31343284"/>
      <point x="-65.0" y="1247.17910448"/>
      <point x="-65" y="1283" type="qcurve" smooth="yes"/>
      <point x="-65.0" y="1374.79104478"/>
      <point x="-174.179104478" y="1479.0"/>
      <point x="-260" y="1479" type="qcurve" smooth="yes"/>
      <point x="-348.059701493" y="1479.0"/>
      <point x="-454.0" y="1372.55223881"/>
      <point x="-454" y="1283" type="qcurve" smooth="yes"/>
      <point x="-454.0" y="1247.92537313"/>
      <point x="-415.417910448" y="1168.37313433"/>
      <point x="-399" y="1143" type="qcurve"/>
    </contour>
  </outline>
</glyph>
<glyph name="u0A71" format="1">
  <advance width="0"/>
  <unicode hex="0A71"/>
  <outline>
    <contour>
      <point x="-179.850746269" y="1140.0"/>
      <point x="-62.552238806" y="1301.35820896"/>
      <point x="-73" y="1423" type="qcurve"/>
      <point x="-108" y="1434" type="line"/>
      <point x="-98.2985074627" y="1317.58208955"/>
      <point x="-194.23880597" y="1176.0"/>
      <point x="-292" y="1176" type="qcurve" smooth="yes"/>
      <point x="-403.194029851" y="1176.0"/>
      <point x="-507.223880597" y="1303.89552239"/>
      <point x="-502" y="1433" type="qcurve"/>
      <point x="-537" y="1422" type="line"/>
      <point x="-541.47761194" y="1280.20895522"/>
      <point x="-411.940298507" y="1140.0"/>
      <point x="-300" y="1140" type="qcurve" smooth="yes"/>
    </contour>
  </outline>
</glyph>
<glyph name="uni0A72" format="1">
  <advance width="1088"/>
  <unicode hex="0A72"/>
  <outline>
    <contour>
      <point x="230" y="944" type="line"/>
      <point x="191" y="944" type="line"/>
      <point x="196" y="921" type="line" smooth="yes"/>
      <point x="218.388059701" y="819.507462687"/>
      <point x="356.343283582" y="559.089552239"/>
      <point x="425" y="477" type="qcurve" smooth="yes"/>
      <point x="444" y="454" type="line"/>
      <point x="477" y="474" type="line"/>
      <point x="457" y="497" type="line" smooth="yes"/>
      <point x="396.552238806" y="563.417910448"/>
      <point x="257.388059701" y="816.52238806"/>
      <point x="235" y="921" type="qcurve" smooth="yes"/>
    </contour>
    <contour>
      <point x="1088" y="920" type="line"/>
      <point x="1088" y="956" type="line"/>
      <point x="0" y="956" type="line"/>
      <point x="0" y="920" type="line"/>
    </contour>
    <contour>
      <point x="847" y="559" type="line"/>
      <point x="847" y="595" type="line"/>
      <point x="809" y="595" type="line" smooth="yes"/>
      <point x="687.358208955" y="595.0"/>
      <point x="341.373134328" y="454.074626866"/>
      <point x="216" y="269" type="qcurve"/>
      <point x="291.373134328" y="157.059701493"/>
      <point x="576.850746269" y="15.0"/>
      <point x="697" y="15" type="qcurve" smooth="yes"/>
      <point x="755.208955224" y="15.0"/>
      <point x="894.313432836" y="62.2089552239"/>
      <point x="957" y="104" type="qcurve"/>
      <point x="945" y="137" type="line"/>
      <point x="874.104477612" y="93.7164179104"/>
      <point x="750.253731343" y="51.0"/>
      <point x="701" y="51" type="qcurve" smooth="yes"/>
      <point x="592.791044776" y="51.0"/>
      <point x="329.611940299" y="175.537313433"/>
      <point x="252" y="283" type="qcurve"/>
      <point x="252" y="255" type="line"/>
      <point x="367.671641791" y="422.910447761"/>
      <point x="691.089552239" y="559.0"/>
      <point x="809" y="559" type="qcurve" smooth="yes"/>
    </contour>
    <contour>
      <point x="817" y="559" type="line"/>
      <point x="852" y="559" type="line"/>
      <point x="852" y="951" type="line"/>
      <point x="817" y="951" type="line"/>
    </contour>
  </outline>
</glyph>
<glyph name="uni0A73" format="1">
  <advance width="1200"/>
  <unicode hex="0A73"/>
  <outline>
    <contour>
      <point x="1040" y="942" type="line"/>
      <point x="1075" y="942" type="line"/>
      <point x="1075" y="956" type="line" smooth="yes"/>
      <point x="1075.0" y="1135.10447761"/>
      <point x="867.611940299" y="1378.0"/>
      <point x="690" y="1378" type="qcurve" smooth="yes"/>
      <point x="543.731343284" y="1378.0"/>
      <point x="272.23880597" y="1185.35820896"/>
      <point x="220" y="1007" type="qcurve" smooth="yes"/>
      <point x="205" y="956" type="line"/>
      <point x="239" y="945" type="line"/>
      <point x="251" y="985" type="line" smooth="yes"/>
      <point x="304.731343284" y="1164.85074627"/>
      <point x="557.701492537" y="1343.0"/>
      <point x="698" y="1343" type="qcurve" smooth="yes"/>
      <point x="833.820895522" y="1343.0"/>
      <point x="1040.0" y="1135.34328358"/>
      <point x="1040" y="954" type="qcurve" smooth="yes"/>
    </contour>
    <contour>
      <point x="-19" y="956" type="line"/>
      <point x="-19" y="920" type="line"/>
      <point x="1286" y="920" type="line"/>
      <point x="1286" y="956" type="line"/>
    </contour>
    <contour>
      <point x="1040" y="940" type="line"/>
      <point x="1040" y="930" type="line" smooth="yes"/>
      <point x="1040.0" y="771.791044776"/>
      <point x="848.343283582" y="493.746268657"/>
      <point x="717" y="493" type="qcurve" smooth="yes"/>
      <point x="249" y="492" type="line"/>
      <point x="249" y="455" type="line"/>
      <point x="668" y="455" type="line" smooth="yes"/>
      <point x="747.850746269" y="455.0"/>
      <point x="912.0" y="336.731343284"/>
      <point x="912" y="233" type="qcurve" smooth="yes"/>
      <point x="912.0" y="155.388059701"/>
      <point x="792.268656716" y="51.0"/>
      <point x="696" y="51" type="qcurve" smooth="yes"/>
      <point x="480.328358209" y="51.0"/>
      <point x="177.537313433" y="599.880597015"/>
      <point x="235" y="926" type="qcurve" smooth="yes"/>
      <point x="237" y="938" type="line"/>
      <point x="203" y="949" type="line"/>
      <point x="201" y="933" type="line" smooth="yes"/>
      <point x="144.28358209" y="556.134328358"/>
      <point x="470.895522388" y="15.0"/>
      <point x="700" y="15" type="qcurve" smooth="yes"/>
      <point x="808.955223881" y="15.0"/>
      <point x="948.0" y="139.746268657"/>
      <point x="948" y="239" type="qcurve" smooth="yes"/>
      <point x="948.0" y="300.940298507"/>
      <point x="855.194029851" y="443.164179104"/>
      <point x="744" y="476" type="qcurve"/>
      <point x="743" y="463" type="line"/>
      <point x="872.104477612" y="482.402985075"/>
      <point x="1075.0" y="741.194029851"/>
      <point x="1075" y="930" type="qcurve" smooth="yes"/>
      <point x="1075" y="940" type="line"/>
    </contour>
  </outline>
</glyph>
<glyph name="emdash" format="1">
  <advance width="2048"/>
  <unicode hex="2014"/>
  <outline>
    <contour>
      <point x="1951" y="448" type="line"/>
      <point x="96" y="448" type="line"/>
      <point x="98" y="412" type="line"/>
      <point x="1951" y="412" type="line"/>
    </contour>
  </outline>
</glyph>
<glyph name="bullet" format="1">
  <advance width="848"/>
  <unicode hex="2022"/>
  <outline>
    <contour>
      <point x="425" y="566" type="line" smooth="yes"/>
      <point x="378.731343284" y="566.0"/>
      <point x="316.0" y="501.776119403"/>
      <point x="316" y="457" type="qcurve" smooth="yes"/>
      <point x="316.0" y="411.47761194"/>
      <point x="378.731343284" y="347.0"/>
      <point x="425" y="347" type="qcurve" smooth="yes"/>
      <point x="467.537313433" y="347.0"/>
      <point x="530.0" y="411.47761194"/>
      <point x="530" y="457" type="qcurve" smooth="yes"/>
      <point x="530.0" y="501.776119403"/>
      <point x="467.791044776" y="566.0"/>
      <point x="426" y="566" type="qcurve" smooth="yes"/>
    </contour>
  </outline>
</glyph>
<glyph name="Euro" format="1">
  <advance width="1475"/>
  <unicode hex="20AC"/>
  <outline>
    <contour>
      <point x="100" y="881" type="line"/>
      <point x="305" y="881" type="line"/>
      <point x="313" y="881" type="line"/>
      <point x="979" y="881" type="line"/>
      <point x="979" y="922" type="line"/>
      <point x="322" y="922" type="line"/>
      <point x="315" y="922" type="line"/>
      <point x="100" y="922" type="line"/>
    </contour>
    <contour>
      <point x="1343" y="1167" type="line"/>
      <point x="1265.3880597" y="1293.86567164"/>
      <point x="1034.59701493" y="1458.0"/>
      <point x="854" y="1458" type="qcurve" smooth="yes"/>
      <point x="642.805970149" y="1458.0"/>
      <point x="340.52238806" y="1143.80597015"/>
      <point x="295" y="905" type="qcurve" smooth="yes"/>
      <point x="295" y="905" type="line"/>
      <point x="286.044776119" y="859.47761194"/>
      <point x="276.0" y="763.507462687"/>
      <point x="276" y="715" type="qcurve" smooth="yes"/>
      <point x="276" y="715" type="line"/>
      <point x="276.0" y="673.208955224"/>
      <point x="283.029850746" y="591.059701493"/>
      <point x="289" y="553" type="qcurve" smooth="yes"/>
      <point x="289" y="553" type="line"/>
      <point x="328.552238806" y="294.791044776"/>
      <point x="641.880597015" y="-25.0"/>
      <point x="868" y="-25" type="qcurve" smooth="yes"/>
      <point x="1039.64179104" y="-25.0"/>
      <point x="1268.14925373" y="153.656716418"/>
      <point x="1348" y="285" type="qcurve"/>
      <point x="1311" y="305" type="line"/>
      <point x="1237.11940299" y="182.611940299"/>
      <point x="1026.95522388" y="16.0"/>
      <point x="868" y="16" type="qcurve" smooth="yes"/>
      <point x="660.537313433" y="16.0"/>
      <point x="368.059701493" y="316.940298507"/>
      <point x="330" y="555" type="qcurve" smooth="yes"/>
      <point x="330" y="555" type="line"/>
      <point x="324.029850746" y="593.059701493"/>
      <point x="317.0" y="673.208955224"/>
      <point x="317" y="715" type="qcurve" smooth="yes"/>
      <point x="317" y="715" type="line"/>
      <point x="317.0" y="763.507462687"/>
      <point x="327.044776119" y="856.970149254"/>
      <point x="336" y="901" type="qcurve" smooth="yes"/>
      <point x="336" y="901" type="line"/>
      <point x="380.029850746" y="1121.14925373"/>
      <point x="658.47761194" y="1417.0"/>
      <point x="854" y="1417" type="qcurve" smooth="yes"/>
      <point x="1021.91044776" y="1417.0"/>
      <point x="1232.6119403" y="1262.91044776"/>
      <point x="1305" y="1145" type="qcurve"/>
    </contour>
    <contour>
      <point x="100" y="532" type="line"/>
      <point x="309" y="532" type="line"/>
      <point x="315" y="532" type="line"/>
      <point x="979" y="532" type="line"/>
      <point x="979" y="573" type="line"/>
      <point x="309" y="573" type="line"/>
      <point x="303" y="573" type="line"/>
      <point x="100" y="573" type="line"/>
    </contour>
  </outline>
</glyph>
<glyph name="servicemark" format="1">
  <advance width="1501"/>
  <unicode hex="2120"/>
  <outline>
    <contour>
      <point x="566.895522388" y="733.0"/>
      <point x="636.0" y="795.208955224"/>
      <point x="636" y="837" type="qcurve" smooth="yes"/>
      <point x="636.0" y="880.28358209"/>
      <point x="574.298507463" y="942.820895522"/>
      <point x="484" y="957" type="qcurve" smooth="yes"/>
      <point x="422.059701493" y="966.701492537"/>
      <point x="377.0" y="1005.65671642"/>
      <point x="377" y="1037" type="qcurve" smooth="yes"/>
      <point x="377.0" y="1060.88059701"/>
      <point x="427.28358209" y="1105.0"/>
      <point x="484" y="1105" type="qcurve" smooth="yes"/>
      <point x="513.104477612" y="1105.0"/>
      <point x="592.865671642" y="1087.94029851"/>
      <point x="616" y="1076" type="qcurve"/>
      <point x="627" y="1102" type="line"/>
      <point x="597.149253731" y="1116.17910448"/>
      <point x="511.597014925" y="1133.0"/>
      <point x="481" y="1133" type="qcurve" smooth="yes"/>
      <point x="416.074626866" y="1133.0"/>
      <point x="345.0" y="1075.80597015"/>
      <point x="345" y="1037" type="qcurve" smooth="yes"/>
      <point x="345.0" y="996.701492537"/>
      <point x="401.104477612" y="941.940298507"/>
      <point x="472" y="930" type="qcurve" smooth="yes"/>
      <point x="551.850746269" y="917.313432836"/>
      <point x="604.0" y="868.343283582"/>
      <point x="604" y="837" type="qcurve" smooth="yes"/>
      <point x="604.0" y="803.417910448"/>
      <point x="550.23880597" y="761.0"/>
      <point x="498" y="761" type="qcurve" smooth="yes"/>
      <point x="462.179104478" y="761.0"/>
      <point x="364.104477612" y="788.582089552"/>
      <point x="335" y="805" type="qcurve"/>
      <point x="324" y="776" type="line"/>
      <point x="350.865671642" y="761.074626866"/>
      <point x="455.701492537" y="733.0"/>
      <point x="496" y="733" type="qcurve" smooth="yes"/>
    </contour>
    <contour>
      <point x="820" y="1110" type="line"/>
      <point x="792" y="1127" type="line"/>
      <point x="792" y="743" type="line"/>
      <point x="820" y="743" type="line"/>
    </contour>
    <contour>
      <point x="792" y="1127" type="line"/>
      <point x="814" y="1085" type="line"/>
      <point x="983" y="834" type="line"/>
      <point x="990" y="834" type="line"/>
      <point x="1162" y="1090" type="line"/>
      <point x="1181" y="1127" type="line"/>
      <point x="1155" y="1127" type="line"/>
      <point x="986" y="875" type="line"/>
      <point x="989" y="875" type="line"/>
      <point x="818" y="1127" type="line"/>
    </contour>
    <contour>
      <point x="1153" y="1119" type="line"/>
      <point x="1153" y="743" type="line"/>
      <point x="1181" y="743" type="line"/>
      <point x="1181" y="1127" type="line"/>
    </contour>
  </outline>
</glyph>
<glyph name="minus" format="1">
  <advance width="1229"/>
  <unicode hex="2212"/>
  <outline>
    <contour>
      <point x="1083" y="702" type="line"/>
      <point x="1083" y="739" type="line"/>
      <point x="145" y="739" type="line"/>
      <point x="145" y="702" type="line"/>
    </contour>
  </outline>
</glyph>
<glyph name="_196" format="1">
  <advance width="1444"/>
  <outline>
    <contour>
      <point x="1468" y="1176" type="line"/>
      <point x="1284" y="1176" type="line"/>
      <point x="1284" y="0" type="line"/>
      <point x="1124" y="0" type="line"/>
      <point x="1124" y="608" type="line"/>
      <point x="842" y="608" type="line"/>
      <point x="842" y="246" type="line"/>
      <point x="753.5" y="220.5" name="inserted"/>
      <point x="614.5" y="195.0"/>
      <point x="564" y="195" type="qcurve"/>
      <point x="410.0" y="195.0" name="inserted"/>
      <point x="177.0" y="357.0"/>
      <point x="98" y="519" type="qcurve"/>
      <point x="163.0" y="602.5" name="inserted"/>
      <point x="228.0" y="770.0"/>
      <point x="228" y="854" type="qcurve"/>
      <point x="228.0" y="946.5" name="inserted"/>
      <point x="183.0" y="1107.5"/>
      <point x="138" y="1176" type="qcurve"/>
      <point x="116.5" y="1176.0" name="inserted"/>
      <point x="47.5" y="1176.0"/>
      <point x="0" y="1176" type="qcurve"/>
      <point x="0" y="1320" type="line"/>
      <point x="1468" y="1320" type="line"/>
    </contour>
    <contour>
      <point x="1124" y="768" type="line"/>
      <point x="1124" y="1176" type="line"/>
      <point x="314" y="1176" type="line"/>
      <point x="354.5" y="1087.0" name="inserted"/>
      <point x="395.0" y="926.0"/>
      <point x="395" y="854" type="qcurve"/>
      <point x="395.0" y="787.0" name="inserted"/>
      <point x="345.0" y="620.5"/>
      <point x="295" y="521" type="qcurve"/>
      <point x="333.5" y="437.5" name="inserted"/>
      <point x="468.0" y="354.0"/>
      <point x="564" y="354" type="qcurve"/>
      <point x="596.5" y="354.0" name="inserted"/>
      <point x="656.5" y="367.5"/>
      <point x="684" y="381" type="qcurve"/>
      <point x="684" y="768" type="line"/>
    </contour>
    <contour>
      <point x="1564" y="-554" type="line"/>
      <point x="1438" y="-651" type="line"/>
      <point x="1142" y="-236" type="line"/>
      <point x="1271" y="-144" type="line"/>
    </contour>
  </outline>
</glyph>
<glyph name="c996" format="1">
  <advance width="2350"/>
  <outline>
    <contour>
      <point x="151" y="0" type="line"/>
      <point x="295.776119403" y="252.23880597"/>
      <point x="650.0" y="657.582089552"/>
      <point x="800" y="774" type="qcurve" smooth="yes"/>
      <point x="977.611940299" y="913.552238806"/>
      <point x="1316.13432836" y="1049.0"/>
      <point x="1443" y="1049" type="qcurve" smooth="yes"/>
      <point x="1771.35820896" y="1049.0"/>
      <point x="2074.0" y="472.656716418"/>
      <point x="2074" y="104" type="qcurve" smooth="yes"/>
      <point x="2074" y="0" type="line"/>
      <point x="2178" y="0" type="line"/>
      <point x="2178" y="121" type="line" smooth="yes"/>
      <point x="2178.0" y="720.253731343"/>
      <point x="1666.67164179" y="1155.0"/>
      <point x="1451" y="1155" type="qcurve" smooth="yes"/>
      <point x="1292.04477612" y="1155.0"/>
      <point x="962.328358209" y="1030.31343284"/>
      <point x="778" y="893" type="qcurve" smooth="yes"/>
      <point x="592.925373134" y="754.194029851"/>
      <point x="208.597014925" y="313.432835821"/>
      <point x="28" y="0" type="qcurve"/>
    </contour>
  </outline>
</glyph>
<glyph name="comma.001" format="1">
  <advance width="439"/>
  <outline>
    <contour>
      <point x="199" y="140" type="line"/>
      <point x="199" y="5" type="line" smooth="yes"/>
      <point x="199.0" y="-117.388059701"/>
      <point x="140.746268657" y="-284.656716418"/>
      <point x="90" y="-366" type="qcurve"/>
      <point x="112" y="-374" type="line"/>
      <point x="166.47761194" y="-294.895522388"/>
      <point x="235.0" y="-105.447761194"/>
      <point x="235" y="5" type="qcurve" smooth="yes"/>
      <point x="235" y="140" type="line"/>
    </contour>
  </outline>
</glyph>
<glyph name="exclam.002" format="1">
  <advance width="672"/>
  <outline>
    <contour>
      <point x="330" y="1078" type="line"/>
      <point x="330" y="850" type="line"/>
      <point x="335" y="357" type="line"/>
      <point x="363" y="357" type="line"/>
      <point x="366" y="850" type="line"/>
      <point x="366" y="1078" type="line"/>
    </contour>
    <component base="period" xOffset="127"/>
  </outline>
</glyph>
<glyph name="headline" format="1">
  <advance width="80"/>
  <outline>
    <contour>
      <point x="0" y="916" type="line"/>
      <point x="120" y="916" type="line"/>
      <point x="128" y="927" type="line"/>
      <point x="80" y="1024" type="line"/>
      <point x="-40" y="1024" type="line"/>
      <point x="-48" y="1013" type="line"/>
    </contour>
  </outline>
</glyph>
<glyph name="headline1" format="1">
  <advance width="180"/>
  <outline>
    <contour>
      <point x="0" y="916" type="line"/>
      <point x="220" y="916" type="line"/>
      <point x="228" y="927" type="line"/>
      <point x="180" y="1024" type="line"/>
      <point x="-40" y="1024" type="line"/>
      <point x="-48" y="1013" type="line"/>
    </contour>
  </outline>
</glyph>
<glyph name="published" format="1">
  <advance width="507"/>
  <outline>
    <contour>
      <point x="507" y="920" type="line"/>
      <point x="507" y="956" type="line"/>
      <point x="0" y="956" type="line"/>
      <point x="0" y="920" type="line"/>
    </contour>
    <contour>
      <point x="236" y="956" type="line"/>
      <point x="236" y="0" type="line"/>
      <point x="271" y="0" type="line"/>
      <point x="271" y="956" type="line"/>
    </contour>
  </outline>
</glyph>
<glyph name="question.001" format="1">
  <advance width="1090"/>
  <outline>
    <contour>
      <point x="479" y="277" type="line"/>
      <point x="505" y="277" type="line"/>
      <point x="511" y="468" type="line"/>
      <point x="684.134328358" y="494.865671642"/>
      <point x="839.0" y="651.731343284"/>
      <point x="839" y="748" type="qcurve" smooth="yes"/>
      <point x="839.0" y="843.52238806"/>
      <point x="694.955223881" y="993.0"/>
      <point x="536" y="993" type="qcurve" smooth="yes"/>
      <point x="444.955223881" y="993.0"/>
      <point x="287.686567164" y="929.014925373"/>
      <point x="225" y="882" type="qcurve"/>
      <point x="247" y="856" type="line"/>
      <point x="307.447761194" y="901.52238806"/>
      <point x="457.626865672" y="957.0"/>
      <point x="533" y="957" type="qcurve" smooth="yes"/>
      <point x="685.23880597" y="957.0"/>
      <point x="803.0" y="823.611940299"/>
      <point x="803" y="746" type="qcurve" smooth="yes"/>
      <point x="803.0" y="665.402985075"/>
      <point x="654.611940299" y="517.641791045"/>
      <point x="477" y="496" type="qcurve"/>
      <point x="473" y="492" type="line"/>
    </contour>
    <component base="period.001" xOffset="272"/>
  </outline>
</glyph>
<glyph name="question.002" format="1">
  <advance width="1222"/>
  <outline>
    <contour>
      <point x="534" y="317" type="line"/>
      <point x="562" y="317" type="line"/>
      <point x="565" y="531" type="line"/>
      <point x="731.417910448" y="556.373134328"/>
      <point x="909.0" y="718.537313433"/>
      <point x="909" y="826" type="qcurve" smooth="yes"/>
      <point x="909.0" y="923.76119403"/>
      <point x="756.47761194" y="1078.0"/>
      <point x="602" y="1078" type="qcurve" smooth="yes"/>
      <point x="510.955223881" y="1078.0"/>
      <point x="353.686567164" y="1014.01492537"/>
      <point x="291" y="967" type="qcurve"/>
      <point x="313" y="941" type="line"/>
      <point x="373.447761194" y="986.52238806"/>
      <point x="523.626865672" y="1042.0"/>
      <point x="599" y="1042" type="qcurve" smooth="yes"/>
      <point x="746.76119403" y="1042.0"/>
      <point x="872.0" y="908.328358209"/>
      <point x="872" y="824" type="qcurve" smooth="yes"/>
      <point x="872.0" y="727.731343284"/>
      <point x="701.656716418" y="582.641791045"/>
      <point x="533" y="561" type="qcurve"/>
      <point x="529" y="557" type="line"/>
    </contour>
    <component base="period" xOffset="330"/>
  </outline>
</glyph>
<glyph name="quoteright.001" format="1">
  <advance width="555"/>
  <outline>
    <contour>
      <point x="279" y="1078" type="line"/>
      <point x="279" y="943" type="line" smooth="yes"/>
      <point x="279.0" y="820.611940299"/>
      <point x="220.746268657" y="653.343283582"/>
      <point x="170" y="572" type="qcurve"/>
      <point x="192" y="564" type="line"/>
      <point x="246.47761194" y="643.104477612"/>
      <point x="315.0" y="832.552238806"/>
      <point x="315" y="943" type="qcurve" smooth="yes"/>
      <point x="315" y="1078" type="line"/>
    </contour>
  </outline>
</glyph>
<glyph name="rupeeIndian" format="1">
  <advance width="1108"/>
  <outline>
    <contour>
      <point x="1028" y="873" type="line"/>
      <point x="1028" y="908" type="line"/>
      <point x="369" y="908" type="line"/>
      <point x="369" y="873" type="line"/>
    </contour>
    <contour>
      <point x="433" y="379" type="line"/>
      <point x="445" y="368" type="line"/>
      <point x="527.089552239" y="278.447761194"/>
      <point x="779.582089552" y="60.6865671642"/>
      <point x="846" y="-2" type="qcurve"/>
      <point x="871" y="20" type="line"/>
      <point x="790.402985075" y="101.343283582"/>
      <point x="563.23880597" y="288.52238806"/>
      <point x="461" y="393" type="qcurve"/>
      <point x="444" y="412" type="line"/>
    </contour>
    <contour>
      <point x="1028" y="625" type="line"/>
      <point x="1028" y="660" type="line"/>
      <point x="369" y="660" type="line"/>
      <point x="369" y="625" type="line"/>
    </contour>
    <contour>
      <point x="582" y="906" type="line"/>
      <point x="626" y="886" type="line" smooth="yes"/>
      <point x="711.820895522" y="847.940298507"/>
      <point x="793.0" y="709.701492537"/>
      <point x="793" y="650" type="qcurve" smooth="yes"/>
      <point x="793.0" y="558.955223881"/>
      <point x="626.28358209" y="423.447761194"/>
      <point x="483" y="413" type="qcurve" smooth="yes"/>
      <point x="443" y="410" type="line"/>
      <point x="459" y="376" type="line"/>
      <point x="502" y="381" type="line" smooth="yes"/>
      <point x="663.194029851" y="399.656716418"/>
      <point x="826.0" y="545.059701493"/>
      <point x="826" y="657" type="qcurve" smooth="yes"/>
      <point x="826.0" y="706.253731343"/>
      <point x="757.358208955" y="840.731343284"/>
      <point x="679" y="887" type="qcurve" smooth="yes"/>
      <point x="645" y="906" type="line"/>
    </contour>
  </outline>
</glyph>
<glyph name="u0A07_u0A3C" format="1">
  <advance width="1642"/>
  <outline>
    <contour>
      <point x="1055" y="1487" type="qcurve"/>
      <point x="895" y="1487" type="line"/>
      <point x="889.0" y="1528.5" name="inserted"/>
      <point x="850.0" y="1596.0"/>
      <point x="817" y="1622" type="qcurve"/>
      <point x="786.5" y="1645.5" name="inserted"/>
      <point x="719.5" y="1669.0"/>
      <point x="683" y="1669" type="qcurve"/>
      <point x="614.0" y="1669.0" name="inserted"/>
      <point x="508.5" y="1604.5"/>
      <point x="472" y="1540" type="qcurve"/>
      <point x="444.5" y="1491.0" name="inserted"/>
      <point x="417.0" y="1381.0"/>
      <point x="417" y="1320" type="qcurve"/>
      <point x="606" y="1320" type="line"/>
      <point x="606" y="1176" type="line"/>
      <point x="417" y="1176" type="line"/>
      <point x="417" y="0" type="line"/>
      <point x="257" y="0" type="line"/>
      <point x="257" y="1176" type="line"/>
      <point x="0" y="1176" type="line"/>
      <point x="0" y="1320" type="line"/>
      <point x="257" y="1320" type="line"/>
      <point x="257.0" y="1413.0" name="inserted"/>
      <point x="302.5" y="1577.0"/>
      <point x="348" y="1648" type="qcurve"/>
      <point x="405.5" y="1738.5" name="inserted"/>
      <point x="573.0" y="1829.0"/>
      <point x="683" y="1829" type="qcurve"/>
      <point x="823" y="1829"/>
      <point x="1048" y="1619"/>
    </contour>
    <contour>
      <point x="1667" y="1176" type="line"/>
      <point x="1473" y="1176" type="line"/>
      <point x="1473" y="589" type="line"/>
      <point x="1084" y="589" type="line"/>
      <point x="1034.0" y="589.0" name="inserted"/>
      <point x="931.5" y="556.5"/>
      <point x="879" y="524" type="qcurve"/>
      <point x="832.5" y="495.0" name="inserted"/>
      <point x="759.5" y="427.5"/>
      <point x="733" y="389" type="qcurve"/>
      <point x="839.0" y="274.5" name="inserted"/>
      <point x="1045.0" y="160.0"/>
      <point x="1145" y="160" type="qcurve"/>
      <point x="1300" y="160"/>
      <point x="1448" y="191"/>
      <point x="1595" y="253" type="qcurve"/>
      <point x="1564.5" y="184.5" name="inserted"/>
      <point x="1478.5" y="86.0"/>
      <point x="1423" y="56" type="qcurve"/>
      <point x="1370.5" y="28.0" name="inserted"/>
      <point x="1231.5" y="0.0"/>
      <point x="1145" y="0" type="qcurve"/>
      <point x="1001.5" y="0.0" name="inserted"/>
      <point x="699.0" y="187.0"/>
      <point x="540" y="374" type="qcurve"/>
      <point x="568.5" y="424.5" name="inserted"/>
      <point x="621.5" y="500.5"/>
      <point x="646" y="526" type="qcurve"/>
      <point x="674.0" y="556.0" name="inserted"/>
      <point x="756.5" y="618.0"/>
      <point x="811" y="650" type="qcurve"/>
      <point x="790.5" y="662.5" name="inserted"/>
      <point x="752.0" y="694.5"/>
      <point x="734" y="714" type="qcurve"/>
      <point x="676.0" y="776.0" name="inserted"/>
      <point x="615.5" y="1007.0"/>
      <point x="613" y="1176" type="qcurve"/>
      <point x="455" y="1176" type="line"/>
      <point x="455" y="1320" type="line"/>
      <point x="1667" y="1320" type="line"/>
    </contour>
    <contour>
      <point x="1312" y="752" type="line"/>
      <point x="1312" y="1176" type="line"/>
      <point x="772" y="1176" type="line"/>
      <point x="772.0" y="1084.0" name="inserted"/>
      <point x="789.0" y="944.5"/>
      <point x="806" y="897" type="qcurve"/>
      <point x="832.5" y="824.5" name="inserted"/>
      <point x="929.0" y="752.0"/>
      <point x="999" y="752" type="qcurve"/>
    </contour>
    <contour>
      <point x="654" y="-168" type="qcurve"/>
      <point x="654" y="-211"/>
      <point x="593" y="-272"/>
      <point x="550" y="-272" type="qcurve"/>
      <point x="507" y="-272"/>
      <point x="446" y="-211"/>
      <point x="446" y="-168" type="qcurve"/>
      <point x="446" y="-125"/>
      <point x="507" y="-64"/>
      <point x="550" y="-64" type="qcurve"/>
      <point x="593" y="-64"/>
      <point x="654" y="-125"/>
    </contour>
  </outline>
</glyph>
<glyph name="u0A15_u0A4D" format="1">
  <advance width="1360"/>
  <outline>
    <contour>
      <point x="1384" y="1176" type="line"/>
      <point x="1200" y="1176" type="line"/>
      <point x="1200.0" y="976.5" name="inserted"/>
      <point x="1142.5" y="669.5"/>
      <point x="1085" y="562" type="qcurve"/>
      <point x="1142.5" y="457.5" name="inserted"/>
      <point x="1200.0" y="176.5"/>
      <point x="1200" y="0" type="qcurve"/>
      <point x="1040" y="0" type="line"/>
      <point x="1040.0" y="145.5" name="inserted"/>
      <point x="1008.5" y="352.5"/>
      <point x="977" y="414" type="qcurve"/>
      <point x="887.0" y="322.0" name="inserted"/>
      <point x="642.0" y="230.0"/>
      <point x="487" y="230" type="qcurve"/>
      <point x="404.0" y="230.0" name="inserted"/>
      <point x="265.0" y="275.5"/>
      <point x="209" y="321" type="qcurve"/>
      <point x="149.5" y="369.5" name="inserted"/>
      <point x="90.0" y="499.5"/>
      <point x="90" y="581" type="qcurve"/>
      <point x="90.0" y="658.5" name="inserted"/>
      <point x="149.0" y="783.0"/>
      <point x="208" y="830" type="qcurve"/>
      <point x="262.5" y="874.0" name="inserted"/>
      <point x="396.0" y="918.0"/>
      <point x="475" y="918" type="qcurve"/>
      <point x="634.5" y="918.0" name="inserted"/>
      <point x="886.0" y="814.0"/>
      <point x="978" y="710" type="qcurve"/>
      <point x="1009.0" y="790.0" name="inserted"/>
      <point x="1040.0" y="1023.0"/>
      <point x="1040" y="1176" type="qcurve"/>
      <point x="0" y="1176" type="line"/>
      <point x="0" y="1320" type="line"/>
      <point x="1384" y="1320" type="line"/>
    </contour>
    <contour>
      <point x="893" y="560" type="qcurve"/>
      <point x="815.5" y="659.5" name="inserted"/>
      <point x="606.5" y="759.0"/>
      <point x="475" y="759" type="qcurve"/>
      <point x="431.5" y="759.0" name="inserted"/>
      <point x="355.5" y="736.5"/>
      <point x="323" y="714" type="qcurve"/>
      <point x="286.0" y="689.0" name="inserted"/>
      <point x="249.0" y="622.5"/>
      <point x="249" y="581" type="qcurve"/>
      <point x="249.0" y="533.5" name="inserted"/>
      <point x="286.0" y="460.5"/>
      <point x="323" y="435" type="qcurve"/>
      <point x="355.5" y="412.5" name="inserted"/>
      <point x="437.5" y="390.0"/>
      <point x="487" y="390" type="qcurve"/>
      <point x="608.0" y="390.0" name="inserted"/>
      <point x="811.0" y="475.0"/>
    </contour>
    <contour>
      <point x="1474" y="-554" type="line"/>
      <point x="1348" y="-651" type="line"/>
      <point x="1052" y="-236" type="line"/>
      <point x="1181" y="-144" type="line"/>
    </contour>
  </outline>
</glyph>
<glyph name="u0A16_u0A4D" format="1">
  <advance width="1320"/>
  <outline>
    <contour>
      <point x="1344" y="1176" type="line"/>
      <point x="1160" y="1176" type="line"/>
      <point x="1160" y="0" type="line"/>
      <point x="1000" y="0" type="line"/>
      <point x="1000" y="389" type="line"/>
      <point x="922.0" y="345.0" name="inserted"/>
      <point x="739.5" y="301.0"/>
      <point x="635" y="301" type="qcurve"/>
      <point x="465.5" y="301.0" name="inserted"/>
      <point x="196.5" y="403.5"/>
      <point x="97" y="506" type="qcurve"/>
      <point x="172.0" y="609.5" name="inserted"/>
      <point x="247.0" y="798.0"/>
      <point x="247" y="883" type="qcurve"/>
      <point x="247.0" y="972.0" name="inserted"/>
      <point x="219.0" y="1118.5"/>
      <point x="191" y="1176" type="qcurve"/>
      <point x="0" y="1176" type="line"/>
      <point x="0" y="1320" type="line"/>
      <point x="299" y="1320" type="line"/>
      <point x="351.0" y="1212.5" name="inserted"/>
      <point x="405.0" y="1010.0"/>
      <point x="407" y="915" type="qcurve"/>
      <point x="1000" y="915" type="line"/>
      <point x="1000" y="1320" type="line"/>
      <point x="1344" y="1320" type="line"/>
    </contour>
    <contour>
      <point x="1000" y="580" type="qcurve"/>
      <point x="1000" y="771" type="line"/>
      <point x="400" y="771" type="line"/>
      <point x="392.0" y="715.0" name="inserted"/>
      <point x="344.5" y="603.0"/>
      <point x="305" y="547" type="qcurve"/>
      <point x="360.0" y="504.0" name="inserted"/>
      <point x="525.0" y="461.0"/>
      <point x="635" y="461" type="qcurve"/>
      <point x="751.5" y="461.0" name="inserted"/>
      <point x="934.0" y="520.5"/>
    </contour>
    <contour>
      <point x="1434" y="-554" type="line"/>
      <point x="1308" y="-651" type="line"/>
      <point x="1012" y="-236" type="line"/>
      <point x="1141" y="-144" type="line"/>
    </contour>
  </outline>
</glyph>
<glyph name="u0A18_u0A3C_u0A4D" format="1">
  <advance width="1444"/>
  <outline>
    <contour>
      <point x="1468" y="1176" type="line"/>
      <point x="1284" y="1176" type="line"/>
      <point x="1284" y="0" type="line"/>
      <point x="1124" y="0" type="line"/>
      <point x="1124" y="360" type="line"/>
      <point x="1102.5" y="355.0" name="inserted"/>
      <point x="1035.0" y="350.0"/>
      <point x="989" y="350" type="qcurve"/>
      <point x="883.5" y="350.0" name="inserted"/>
      <point x="733.0" y="421.5"/>
      <point x="688" y="493" type="qcurve"/>
      <point x="640.0" y="454.5" name="inserted"/>
      <point x="530.5" y="416.0"/>
      <point x="469" y="416" type="qcurve"/>
      <point x="422.5" y="416.0" name="inserted"/>
      <point x="324.5" y="446.0"/>
      <point x="273" y="476" type="qcurve"/>
      <point x="216.0" y="509.0" name="inserted"/>
      <point x="134.5" y="592.5"/>
      <point x="110" y="643" type="qcurve"/>
      <point x="132.5" y="673.5" name="inserted"/>
      <point x="177.5" y="734.5"/>
      <point x="200" y="765" type="qcurve"/>
      <point x="226.5" y="810.0" name="inserted"/>
      <point x="253.0" y="919.5"/>
      <point x="253" y="984" type="qcurve"/>
      <point x="253.0" y="1029.5" name="inserted"/>
      <point x="224.5" y="1125.5"/>
      <point x="196" y="1176" type="qcurve"/>
      <point x="0" y="1176" type="line"/>
      <point x="0" y="1320" type="line"/>
      <point x="254" y="1320" type="line"/>
      <point x="295.5" y="1276.0" name="inserted"/>
      <point x="353.5" y="1200.5"/>
      <point x="370" y="1169" type="qcurve"/>
      <point x="391.5" y="1128.5" name="inserted"/>
      <point x="413.0" y="1036.0"/>
      <point x="413" y="984" type="qcurve"/>
      <point x="413.0" y="882.5" name="inserted"/>
      <point x="354.0" y="714.0"/>
      <point x="295" y="647" type="qcurve"/>
      <point x="331.0" y="611.0" name="inserted"/>
      <point x="418.0" y="575.0"/>
      <point x="469" y="575" type="qcurve"/>
      <point x="529.5" y="575.0" name="inserted"/>
      <point x="617.0" y="620.0"/>
      <point x="644" y="665" type="qcurve"/>
      <point x="638.0" y="726.0" name="inserted"/>
      <point x="632.0" y="970.0"/>
      <point x="632" y="1153" type="qcurve"/>
      <point x="632.0" y="1193.0" name="inserted"/>
      <point x="649.5" y="1257.0"/>
      <point x="667" y="1281" type="qcurve"/>
      <point x="681.5" y="1300.5" name="inserted"/>
      <point x="713.5" y="1320.0"/>
      <point x="731" y="1320" type="qcurve"/>
      <point x="755.0" y="1320.0" name="inserted"/>
      <point x="792.5" y="1291.0"/>
      <point x="806" y="1262" type="qcurve"/>
      <point x="817.5" y="1237.5" name="inserted"/>
      <point x="829.0" y="1180.0"/>
      <point x="829" y="1147" type="qcurve"/>
      <point x="829.0" y="1055.0" name="inserted"/>
      <point x="805.0" y="801.5"/>
      <point x="781" y="640" type="qcurve"/>
      <point x="798.0" y="575.0" name="inserted"/>
      <point x="902.0" y="510.0"/>
      <point x="989" y="510" type="qcurve"/>
      <point x="1030.5" y="510.0" name="inserted"/>
      <point x="1098.0" y="516.5"/>
      <point x="1124" y="523" type="qcurve"/>
      <point x="1124" y="1320" type="line"/>
      <point x="1468" y="1320" type="line"/>
    </contour>
    <contour>
      <point x="317" y="188" type="qcurve"/>
      <point x="317" y="145"/>
      <point x="256" y="84"/>
      <point x="213" y="84" type="qcurve"/>
      <point x="170" y="84"/>
      <point x="109" y="145"/>
      <point x="109" y="188" type="qcurve"/>
      <point x="109" y="231"/>
      <point x="170" y="292"/>
      <point x="213" y="292" type="qcurve"/>
      <point x="256" y="292"/>
      <point x="317" y="231"/>
    </contour>
    <contour>
      <point x="1564" y="-554" type="line"/>
      <point x="1438" y="-651" type="line"/>
      <point x="1142" y="-236" type="line"/>
      <point x="1271" y="-144" type="line"/>
    </contour>
  </outline>
</glyph>
<glyph name="u0A19_u0A3C" format="1">
  <advance width="1260"/>
  <outline>
    <contour>
      <point x="1284" y="1176" type="line"/>
      <point x="270" y="1176" type="line"/>
      <point x="270" y="980" type="line"/>
      <point x="725" y="980" type="line"/>
      <point x="824.5" y="980.0" name="inserted"/>
      <point x="982.0" y="940.5"/>
      <point x="1040" y="901" type="qcurve"/>
      <point x="1109.0" y="854.5" name="inserted"/>
      <point x="1178.0" y="712.0"/>
      <point x="1178" y="616" type="qcurve"/>
      <point x="1178.0" y="485.5" name="inserted"/>
      <point x="1033.5" y="282.5"/>
      <point x="889" y="210" type="qcurve"/>
      <point x="978" y="101" type="line"/>
      <point x="854" y="0" type="line"/>
      <point x="833.5" y="25.5" name="inserted"/>
      <point x="771.0" y="102.0"/>
      <point x="729" y="153" type="qcurve"/>
      <point x="641.5" y="125.5" name="inserted"/>
      <point x="494.0" y="98.0"/>
      <point x="434" y="98" type="qcurve"/>
      <point x="374.0" y="98.0" name="inserted"/>
      <point x="265.0" y="128.0"/>
      <point x="216" y="158" type="qcurve"/>
      <point x="159.0" y="193.0" name="inserted"/>
      <point x="102.0" y="284.5"/>
      <point x="102" y="341" type="qcurve"/>
      <point x="102.0" y="453.0" name="inserted"/>
      <point x="238.5" y="565.0"/>
      <point x="375" y="565" type="qcurve"/>
      <point x="471.0" y="565.0" name="inserted"/>
      <point x="672.5" y="451.5"/>
      <point x="778" y="338" type="qcurve"/>
      <point x="898.0" y="391.5" name="inserted"/>
      <point x="1018.0" y="530.5"/>
      <point x="1018" y="616" type="qcurve"/>
      <point x="1018.0" y="718.5" name="inserted"/>
      <point x="871.5" y="821.0"/>
      <point x="725" y="821" type="qcurve"/>
      <point x="110" y="821" type="line"/>
      <point x="110" y="1176" type="line"/>
      <point x="0" y="1176" type="line"/>
      <point x="0" y="1320" type="line"/>
      <point x="1284" y="1320" type="line"/>
    </contour>
    <contour>
      <point x="608" y="284" type="qcurve"/>
      <point x="535.5" y="354.5" name="inserted"/>
      <point x="419.0" y="425.0"/>
      <point x="375" y="425" type="qcurve"/>
      <point x="313.5" y="425.0" name="inserted"/>
      <point x="252.0" y="378.0"/>
      <point x="252" y="331" type="qcurve"/>
      <point x="252.0" y="311.5" name="inserted"/>
      <point x="285.0" y="282.0"/>
      <point x="318" y="272" type="qcurve"/>
      <point x="341.0" y="265.0" name="inserted"/>
      <point x="389.5" y="258.0"/>
      <point x="415" y="258" type="qcurve"/>
      <point x="461.5" y="258.0" name="inserted"/>
      <point x="558.0" y="271.0"/>
    </contour>
    <contour>
      <point x="272" y="-120" type="qcurve"/>
      <point x="272" y="-163"/>
      <point x="211" y="-224"/>
      <point x="168" y="-224" type="qcurve"/>
      <point x="125" y="-224"/>
      <point x="64" y="-163"/>
      <point x="64" y="-120" type="qcurve"/>
      <point x="64" y="-77"/>
      <point x="125" y="-16"/>
      <point x="168" y="-16" type="qcurve"/>
      <point x="211" y="-16"/>
      <point x="272" y="-77"/>
    </contour>
    <contour>
      <point x="1004" y="1248" type="move" name="mark0"/>
    </contour>
    <contour>
      <point x="1260" y="0" type="move" name="mark0"/>
    </contour>
  </outline>
</glyph>
<glyph name="u0A1A_u0A3C_u0A4D" format="1">
  <advance width="1436"/>
  <outline>
    <contour>
      <point x="1460" y="1176" type="line"/>
      <point x="1276" y="1176" type="line"/>
      <point x="1276" y="461" type="line"/>
      <point x="1276.0" y="230.5" name="inserted"/>
      <point x="1009.5" y="0.0"/>
      <point x="743" y="0" type="qcurve"/>
      <point x="648.0" y="0.0" name="inserted"/>
      <point x="488.5" y="55.0"/>
      <point x="424" y="110" type="qcurve"/>
      <point x="351.5" y="171.5" name="inserted"/>
      <point x="279.0" y="340.0"/>
      <point x="279" y="447" type="qcurve"/>
      <point x="279" y="662" type="line"/>
      <point x="183.0" y="663.5" name="inserted"/>
      <point x="87.0" y="717.5"/>
      <point x="87" y="770" type="qcurve"/>
      <point x="87.0" y="804.5" name="inserted"/>
      <point x="128.5" y="871.0"/>
      <point x="170" y="903" type="qcurve"/>
      <point x="206.5" y="931.0" name="inserted"/>
      <point x="269.5" y="959.0"/>
      <point x="296" y="959" type="qcurve"/>
      <point x="337.0" y="959.0" name="inserted"/>
      <point x="397.0" y="887.0"/>
      <point x="416" y="815" type="qcurve"/>
      <point x="1116" y="815" type="line"/>
      <point x="1116" y="1176" type="line"/>
      <point x="0" y="1176" type="line"/>
      <point x="0" y="1320" type="line"/>
      <point x="1460" y="1320" type="line"/>
    </contour>
    <contour>
      <point x="1116" y="456" type="qcurve"/>
      <point x="1116" y="656" type="line"/>
      <point x="441" y="656" type="line"/>
      <point x="441" y="434" type="line"/>
      <point x="441.0" y="359.5" name="inserted"/>
      <point x="492.5" y="250.0"/>
      <point x="544" y="215" type="qcurve"/>
      <point x="583.5" y="187.5" name="inserted"/>
      <point x="683.0" y="160.0"/>
      <point x="743" y="160" type="qcurve"/>
      <point x="929.5" y="160.0" name="inserted"/>
      <point x="1116.0" y="308.0"/>
    </contour>
    <contour>
      <point x="305" y="18" type="qcurve"/>
      <point x="305" y="-25"/>
      <point x="244" y="-86"/>
      <point x="201" y="-86" type="qcurve"/>
      <point x="158" y="-86"/>
      <point x="97" y="-25"/>
      <point x="97" y="18" type="qcurve"/>
      <point x="97" y="61"/>
      <point x="158" y="122"/>
      <point x="201" y="122" type="qcurve"/>
      <point x="244" y="122"/>
      <point x="305" y="61"/>
    </contour>
    <contour>
      <point x="1094" y="-554" type="line"/>
      <point x="968" y="-651" type="line"/>
      <point x="672" y="-236" type="line"/>
      <point x="801" y="-144" type="line"/>
    </contour>
  </outline>
</glyph>
<glyph name="u0A1F_u0A4D" format="1">
  <advance width="1376"/>
  <outline>
    <contour>
      <point x="1400" y="1176" type="line"/>
      <point x="1216" y="1176" type="line"/>
      <point x="1216" y="776" type="line"/>
      <point x="1112" y="776" type="line"/>
      <point x="966.0" y="776.0" name="inserted"/>
      <point x="745.0" y="756.5"/>
      <point x="670" y="737" type="qcurve"/>
      <point x="557.0" y="708.0" name="inserted"/>
      <point x="372.5" y="592.0"/>
      <point x="301" y="505" type="qcurve"/>
      <point x="340.0" y="426.0" name="inserted"/>
      <point x="442.0" y="301.5"/>
      <point x="505" y="256" type="qcurve"/>
      <point x="573.0" y="207.0" name="inserted"/>
      <point x="724.5" y="158.0"/>
      <point x="808" y="158" type="qcurve"/>
      <point x="917.0" y="158.0" name="inserted"/>
      <point x="1144.5" y="187.0"/>
      <point x="1263" y="216" type="qcurve"/>
      <point x="1263" y="204" type="line"/>
      <point x="1263.0" y="156.5" name="inserted"/>
      <point x="1172.0" y="78.0"/>
      <point x="1081" y="47" type="qcurve"/>
      <point x="1009.0" y="22.5" name="inserted"/>
      <point x="872.5" y="-2.0"/>
      <point x="808" y="-2" type="qcurve"/>
      <point x="684.0" y="-2.0" name="inserted"/>
      <point x="469.5" y="66.0"/>
      <point x="379" y="134" type="qcurve"/>
      <point x="291.0" y="200.5" name="inserted"/>
      <point x="162.0" y="385.5"/>
      <point x="121" y="504" type="qcurve"/>
      <point x="214.0" y="719.5" name="inserted"/>
      <point x="681.5" y="935.0"/>
      <point x="1056" y="935" type="qcurve"/>
      <point x="1056" y="1176" type="line"/>
      <point x="0" y="1176" type="line"/>
      <point x="0" y="1320" type="line"/>
      <point x="1400" y="1320" type="line"/>
    </contour>
    <contour>
      <point x="1194" y="-554" type="line"/>
      <point x="1068" y="-651" type="line"/>
      <point x="772" y="-236" type="line"/>
      <point x="901" y="-144" type="line"/>
    </contour>
  </outline>
</glyph>
<glyph name="u0A21_u0A4D" format="1">
  <advance width="1376"/>
  <outline>
    <contour>
      <point x="1400" y="1176" type="line"/>
      <point x="1216" y="1176" type="line"/>
      <point x="1212.5" y="1001.0" name="inserted"/>
      <point x="1100.0" y="760.5"/>
      <point x="991" y="695" type="qcurve"/>
      <point x="1044.5" y="656.0" name="inserted"/>
      <point x="1118.0" y="577.5"/>
      <point x="1138" y="538" type="qcurve"/>
      <point x="1155.0" y="504.5" name="inserted"/>
      <point x="1172.0" y="419.5"/>
      <point x="1172" y="368" type="qcurve"/>
      <point x="1172.0" y="272.0" name="inserted"/>
      <point x="1070.0" y="125.0"/>
      <point x="968" y="74" type="qcurve"/>
      <point x="887.5" y="34.0" name="inserted"/>
      <point x="702.5" y="-6.0"/>
      <point x="598" y="-6" type="qcurve"/>
      <point x="503.5" y="-6.0" name="inserted"/>
      <point x="343.0" y="22.0"/>
      <point x="277" y="50" type="qcurve"/>
      <point x="187.5" y="88.5" name="inserted"/>
      <point x="98.0" y="207.0"/>
      <point x="98" y="287" type="qcurve"/>
      <point x="98.0" y="338.5" name="inserted"/>
      <point x="150.0" y="415.5"/>
      <point x="202" y="441" type="qcurve"/>
      <point x="242.0" y="461.0" name="inserted"/>
      <point x="337.5" y="481.0"/>
      <point x="393" y="481" type="qcurve"/>
      <point x="527" y="481"/>
      <point x="770" y="319"/>
      <point x="824" y="189" type="qcurve"/>
      <point x="858.5" y="200.5" name="inserted"/>
      <point x="920.0" y="235.5"/>
      <point x="947" y="259" type="qcurve"/>
      <point x="980.0" y="288.0" name="inserted"/>
      <point x="1013.0" y="349.0"/>
      <point x="1013" y="381" type="qcurve"/>
      <point x="1013.0" y="451.5" name="inserted"/>
      <point x="916.5" y="574.5"/>
      <point x="820" y="627" type="qcurve"/>
      <point x="740.0" y="603.0" name="inserted"/>
      <point x="567.0" y="584.0"/>
      <point x="474" y="589" type="qcurve"/>
      <point x="379.5" y="594.0" name="inserted"/>
      <point x="288.0" y="652.5"/>
      <point x="291" y="706" type="qcurve"/>
      <point x="294.0" y="768.5" name="inserted"/>
      <point x="419.5" y="831.0"/>
      <point x="542" y="831" type="qcurve"/>
      <point x="629.0" y="831.0" name="inserted"/>
      <point x="777.5" y="811.0"/>
      <point x="839" y="791" type="qcurve"/>
      <point x="946.0" y="846.5" name="inserted"/>
      <point x="1055.0" y="1039.0"/>
      <point x="1057" y="1176" type="qcurve"/>
      <point x="0" y="1176" type="line"/>
      <point x="0" y="1320" type="line"/>
      <point x="1400" y="1320" type="line"/>
    </contour>
    <contour>
      <point x="668" y="159" type="qcurve"/>
      <point x="643.5" y="209.5" name="inserted"/>
      <point x="581.0" y="280.5"/>
      <point x="543" y="301" type="qcurve"/>
      <point x="511.0" y="318.0" name="inserted"/>
      <point x="426.5" y="335.0"/>
      <point x="374" y="335" type="qcurve"/>
      <point x="316.0" y="335.0" name="inserted"/>
      <point x="258.0" y="311.0"/>
      <point x="258" y="287" type="qcurve"/>
      <point x="258.0" y="220.5" name="inserted"/>
      <point x="428.0" y="154.0"/>
      <point x="598" y="154" type="qcurve"/>
      <point x="614.5" y="154.0" name="inserted"/>
      <point x="649.5" y="156.5"/>
    </contour>
    <contour>
      <point x="1244" y="-554" type="line"/>
      <point x="1118" y="-651" type="line"/>
      <point x="822" y="-236" type="line"/>
      <point x="951" y="-144" type="line"/>
    </contour>
  </outline>
</glyph>
<glyph name="u0A22_u0A3C_u0A4D" format="1">
  <advance width="1376"/>
  <outline>
    <contour>
      <point x="1400" y="1176" type="line"/>
      <point x="1216" y="1176" type="line"/>
      <point x="1216" y="682" type="line"/>
      <point x="377" y="682" type="line"/>
      <point x="386.0" y="493.5" name="inserted"/>
      <point x="518.0" y="253.0"/>
      <point x="641" y="201" type="qcurve"/>
      <point x="692.0" y="268.0" name="inserted"/>
      <point x="779.0" y="365.0"/>
      <point x="815" y="395" type="qcurve"/>
      <point x="866.5" y="438.0" name="inserted"/>
      <point x="971.5" y="481.0"/>
      <point x="1025" y="481" type="qcurve"/>
      <point x="1076.0" y="481.0" name="inserted"/>
      <point x="1158.5" y="453.0"/>
      <point x="1190" y="425" type="qcurve"/>
      <point x="1222.5" y="395.5" name="inserted"/>
      <point x="1255.0" y="316.0"/>
      <point x="1255" y="266" type="qcurve"/>
      <point x="1255.0" y="197.5" name="inserted"/>
      <point x="1187.0" y="95.5"/>
      <point x="1119" y="62" type="qcurve"/>
      <point x="1067.0" y="36.0" name="inserted"/>
      <point x="938.5" y="10.0"/>
      <point x="862" y="10" type="qcurve"/>
      <point x="699.0" y="10.0" name="inserted"/>
      <point x="460.0" y="88.0"/>
      <point x="384" y="166" type="qcurve"/>
      <point x="311.0" y="241.0" name="inserted"/>
      <point x="221.0" y="490.5"/>
      <point x="204" y="665" type="qcurve"/>
      <point x="130.5" y="677.5" name="inserted"/>
      <point x="57.0" y="734.0"/>
      <point x="57" y="778" type="qcurve"/>
      <point x="57" y="836"/>
      <point x="185" y="969"/>
      <point x="248" y="969" type="qcurve"/>
      <point x="286.0" y="969.0" name="inserted"/>
      <point x="345.5" y="907.5"/>
      <point x="367" y="846" type="qcurve"/>
      <point x="1056" y="846" type="line"/>
      <point x="1056" y="1176" type="line"/>
      <point x="0" y="1176" type="line"/>
      <point x="0" y="1320" type="line"/>
      <point x="1400" y="1320" type="line"/>
    </contour>
    <contour>
      <point x="1095" y="268" type="qcurve"/>
      <point x="1095.0" y="294.5" name="inserted"/>
      <point x="1056.0" y="321.0"/>
      <point x="1017" y="321" type="qcurve"/>
      <point x="976.5" y="321.0" name="inserted"/>
      <point x="868.0" y="236.5"/>
      <point x="800" y="152" type="qcurve"/>
      <point x="820.5" y="150.5" name="inserted"/>
      <point x="856.5" y="149.0"/>
      <point x="872" y="149" type="qcurve"/>
      <point x="983.5" y="149.0" name="inserted"/>
      <point x="1095.0" y="208.5"/>
    </contour>
    <contour>
      <point x="306" y="18" type="qcurve"/>
      <point x="306" y="-25"/>
      <point x="245" y="-86"/>
      <point x="202" y="-86" type="qcurve"/>
      <point x="159" y="-86"/>
      <point x="98" y="-25"/>
      <point x="98" y="18" type="qcurve"/>
      <point x="98" y="61"/>
      <point x="159" y="122"/>
      <point x="202" y="122" type="qcurve"/>
      <point x="245" y="122"/>
      <point x="306" y="61"/>
    </contour>
    <contour>
      <point x="1144" y="-554" type="line"/>
      <point x="1018" y="-651" type="line"/>
      <point x="722" y="-236" type="line"/>
      <point x="851" y="-144" type="line"/>
    </contour>
  </outline>
</glyph>
<glyph name="u0A26_u0A3C" format="1">
  <advance width="1376"/>
  <outline>
    <contour>
      <point x="1400" y="1176" type="line"/>
      <point x="1216" y="1176" type="line"/>
      <point x="1216" y="682" type="line"/>
      <point x="377" y="682" type="line"/>
      <point x="406.0" y="432.5" name="inserted"/>
      <point x="618.5" y="183.0"/>
      <point x="802" y="183" type="qcurve"/>
      <point x="921" y="183"/>
      <point x="1265" y="313"/>
      <point x="1281" y="313" type="qcurve"/>
      <point x="1291.5" y="313.0" name="inserted"/>
      <point x="1302.0" y="300.0"/>
      <point x="1302" y="287" type="qcurve"/>
      <point x="1302.0" y="226.5" name="inserted"/>
      <point x="1206.5" y="121.0"/>
      <point x="1111" y="76" type="qcurve"/>
      <point x="1029.5" y="38.0" name="inserted"/>
      <point x="874.0" y="0.0"/>
      <point x="800" y="0" type="qcurve"/>
      <point x="663.5" y="0.0" name="inserted"/>
      <point x="446.0" y="100.0"/>
      <point x="365" y="200" type="qcurve"/>
      <point x="292.5" y="290.5" name="inserted"/>
      <point x="212.0" y="523.0"/>
      <point x="204" y="665" type="qcurve"/>
      <point x="168.0" y="670.5" name="inserted"/>
      <point x="119.5" y="681.5"/>
      <point x="107" y="687" type="qcurve"/>
      <point x="82.0" y="698.5" name="inserted"/>
      <point x="57.0" y="737.0"/>
      <point x="57" y="764" type="qcurve"/>
      <point x="57" y="832"/>
      <point x="174" y="969"/>
      <point x="240" y="969" type="qcurve"/>
      <point x="279.5" y="969.0" name="inserted"/>
      <point x="339.5" y="907.5"/>
      <point x="360" y="846" type="qcurve"/>
      <point x="1056" y="846" type="line"/>
      <point x="1056" y="1176" type="line"/>
      <point x="0" y="1176" type="line"/>
      <point x="0" y="1320" type="line"/>
      <point x="1400" y="1320" type="line"/>
    </contour>
    <contour>
      <point x="314" y="18" type="qcurve"/>
      <point x="314" y="-25"/>
      <point x="253" y="-86"/>
      <point x="210" y="-86" type="qcurve"/>
      <point x="167" y="-86"/>
      <point x="106" y="-25"/>
      <point x="106" y="18" type="qcurve"/>
      <point x="106" y="61"/>
      <point x="167" y="122"/>
      <point x="210" y="122" type="qcurve"/>
      <point x="253" y="122"/>
      <point x="314" y="61"/>
    </contour>
    <contour>
      <point x="1136" y="1248" type="move" name="mark0"/>
    </contour>
    <contour>
      <point x="1376" y="0" type="move" name="mark0"/>
    </contour>
  </outline>
</glyph>
<glyph name="u0A27_u0A4D" format="1">
  <advance width="1320"/>
  <outline>
    <contour>
      <point x="1344" y="1176" type="line"/>
      <point x="1160" y="1176" type="line"/>
      <point x="1160" y="0" type="line"/>
      <point x="1000" y="0" type="line"/>
      <point x="1000" y="389" type="line"/>
      <point x="922.5" y="345.0" name="inserted"/>
      <point x="740.0" y="301.0"/>
      <point x="635" y="301" type="qcurve"/>
      <point x="466.5" y="301.0" name="inserted"/>
      <point x="197.5" y="408.5"/>
      <point x="97" y="516" type="qcurve"/>
      <point x="122.5" y="552.0" name="inserted"/>
      <point x="173.5" y="623.5"/>
      <point x="199" y="659" type="qcurve"/>
      <point x="238.0" y="725.5" name="inserted"/>
      <point x="277.0" y="857.0"/>
      <point x="277" y="922" type="qcurve"/>
      <point x="277.0" y="989.5" name="inserted"/>
      <point x="244.0" y="1116.5"/>
      <point x="211" y="1176" type="qcurve"/>
      <point x="0" y="1176" type="line"/>
      <point x="0" y="1320" type="line"/>
      <point x="1344" y="1320" type="line"/>
    </contour>
    <contour>
      <point x="1000" y="580" type="qcurve"/>
      <point x="1000" y="1176" type="line"/>
      <point x="388" y="1176" type="line"/>
      <point x="412.5" y="1106.5" name="inserted"/>
      <point x="437.0" y="969.5"/>
      <point x="437" y="902" type="qcurve"/>
      <point x="437.0" y="818.5" name="inserted"/>
      <point x="376.0" y="641.0"/>
      <point x="315" y="547" type="qcurve"/>
      <point x="363.5" y="504.0" name="inserted"/>
      <point x="523.5" y="461.0"/>
      <point x="635" y="461" type="qcurve"/>
      <point x="736" y="461"/>
      <point x="941" y="526"/>
    </contour>
    <contour>
      <point x="1444" y="-554" type="line"/>
      <point x="1318" y="-651" type="line"/>
      <point x="1022" y="-236" type="line"/>
      <point x="1151" y="-144" type="line"/>
    </contour>
  </outline>
</glyph>
<glyph name="u0A2B_u0A4D" format="1">
  <advance width="1260"/>
  <outline>
    <contour>
      <point x="1284" y="1176" type="line"/>
      <point x="1100" y="1176" type="line"/>
      <point x="1100" y="719" type="line"/>
      <point x="449" y="719" type="line"/>
      <point x="351.5" y="719.0" name="inserted"/>
      <point x="254.0" y="670.5"/>
      <point x="254" y="622" type="qcurve"/>
      <point x="254.0" y="461.0" name="inserted"/>
      <point x="403.0" y="245.5"/>
      <point x="552" y="191" type="qcurve"/>
      <point x="603.0" y="258.0" name="inserted"/>
      <point x="690.0" y="355.0"/>
      <point x="726" y="385" type="qcurve"/>
      <point x="777.5" y="428.0" name="inserted"/>
      <point x="882.5" y="471.0"/>
      <point x="936" y="471" type="qcurve"/>
      <point x="987.0" y="471.0" name="inserted"/>
      <point x="1069.5" y="443.0"/>
      <point x="1101" y="415" type="qcurve"/>
      <point x="1133.5" y="385.5" name="inserted"/>
      <point x="1166.0" y="306.0"/>
      <point x="1166" y="256" type="qcurve"/>
      <point x="1166.0" y="187.5" name="inserted"/>
      <point x="1098.0" y="85.5"/>
      <point x="1030" y="52" type="qcurve"/>
      <point x="978.0" y="26.0" name="inserted"/>
      <point x="849.5" y="0.0"/>
      <point x="773" y="0" type="qcurve"/>
      <point x="630.5" y="0.0" name="inserted"/>
      <point x="392.5" y="82.0"/>
      <point x="297" y="164" type="qcurve"/>
      <point x="196.0" y="251.0" name="inserted"/>
      <point x="95.0" y="480.0"/>
      <point x="95" y="622" type="qcurve"/>
      <point x="95.0" y="697.5" name="inserted"/>
      <point x="128.0" y="801.0"/>
      <point x="161" y="829" type="qcurve"/>
      <point x="190.5" y="854.5" name="inserted"/>
      <point x="294.5" y="880.0"/>
      <point x="369" y="880" type="qcurve"/>
      <point x="940" y="880" type="line"/>
      <point x="940" y="1176" type="line"/>
      <point x="0" y="1176" type="line"/>
      <point x="0" y="1320" type="line"/>
      <point x="1284" y="1320" type="line"/>
    </contour>
    <contour>
      <point x="1006" y="258" type="qcurve"/>
      <point x="1006.0" y="284.5" name="inserted"/>
      <point x="967.0" y="311.0"/>
      <point x="928" y="311" type="qcurve"/>
      <point x="887.5" y="311.0" name="inserted"/>
      <point x="779.0" y="226.5"/>
      <point x="711" y="142" type="qcurve"/>
      <point x="731.5" y="140.5" name="inserted"/>
      <point x="767.5" y="139.0"/>
      <point x="783" y="139" type="qcurve"/>
      <point x="894.5" y="139.0" name="inserted"/>
      <point x="1006.0" y="198.5"/>
    </contour>
    <contour>
      <point x="1094" y="-554" type="line"/>
      <point x="968" y="-651" type="line"/>
      <point x="672" y="-236" type="line"/>
      <point x="801" y="-144" type="line"/>
    </contour>
  </outline>
</glyph>
<glyph name="u0A2C_u0A4D" format="1">
  <advance width="1396"/>
  <outline>
    <contour>
      <point x="1420" y="1176" type="line"/>
      <point x="1236" y="1176" type="line"/>
      <point x="1236" y="0" type="line"/>
      <point x="1076" y="0" type="line"/>
      <point x="1076" y="236" type="line"/>
      <point x="1003.5" y="211.0" name="inserted"/>
      <point x="803.0" y="186.0"/>
      <point x="675" y="186" type="qcurve"/>
      <point x="623.5" y="186.0" name="inserted"/>
      <point x="509.0" y="209.0"/>
      <point x="446" y="232" type="qcurve"/>
      <point x="373.5" y="258.5" name="inserted"/>
      <point x="277.5" y="324.5"/>
      <point x="254" y="364" type="qcurve"/>
      <point x="263.5" y="403.5" name="inserted"/>
      <point x="310.0" y="492.5"/>
      <point x="347" y="542" type="qcurve"/>
      <point x="380.0" y="585.5" name="inserted"/>
      <point x="448.5" y="656.5"/>
      <point x="484" y="684" type="qcurve"/>
      <point x="327.0" y="740.0" name="inserted"/>
      <point x="128.5" y="986.0"/>
      <point x="87" y="1176" type="qcurve"/>
      <point x="0" y="1176" type="line"/>
      <point x="0" y="1320" type="line"/>
      <point x="1420" y="1320" type="line"/>
    </contour>
    <contour>
      <point x="1076" y="770" type="qcurve"/>
      <point x="1076" y="1176" type="line"/>
      <point x="251" y="1176" type="line"/>
      <point x="285.0" y="1041.0" name="inserted"/>
      <point x="438.5" y="864.0"/>
      <point x="558" y="822" type="qcurve"/>
      <point x="632.0" y="796.0" name="inserted"/>
      <point x="891.0" y="770.0"/>
    </contour>
    <contour>
      <point x="1076" y="422" type="qcurve"/>
      <point x="1076" y="604" type="line"/>
      <point x="1074.5" y="603.5" name="inserted"/>
      <point x="1060.0" y="603.5"/>
      <point x="1047" y="604" type="qcurve"/>
      <point x="889.0" y="604.0" name="inserted"/>
      <point x="694.0" y="611.5"/>
      <point x="657" y="619" type="qcurve"/>
      <point x="574.5" y="566.0" name="inserted"/>
      <point x="459.0" y="458.0"/>
      <point x="426" y="403" type="qcurve"/>
      <point x="468.0" y="371.0" name="inserted"/>
      <point x="607.5" y="342.5"/>
      <point x="705" y="346" type="qcurve"/>
      <point x="813.0" y="350.0" name="inserted"/>
      <point x="998.5" y="388.0"/>
    </contour>
    <contour>
      <point x="1524" y="-554" type="line"/>
      <point x="1398" y="-651" type="line"/>
      <point x="1102" y="-236" type="line"/>
      <point x="1231" y="-144" type="line"/>
    </contour>
  </outline>
</glyph>
<glyph name="u0A2D_u0A3C_u0A4D" format="1">
  <advance width="1260"/>
  <outline>
    <contour>
      <point x="1284" y="1176" type="line"/>
      <point x="1112" y="1176" type="line"/>
      <point x="1112.0" y="1121.5" name="inserted"/>
      <point x="1097.0" y="1004.0"/>
      <point x="1082" y="941" type="qcurve"/>
      <point x="1065.0" y="869.5" name="inserted"/>
      <point x="1020.0" y="762.0"/>
      <point x="992" y="726" type="qcurve"/>
      <point x="1042.5" y="662.0" name="inserted"/>
      <point x="1093.0" y="517.0"/>
      <point x="1093" y="436" type="qcurve"/>
      <point x="1093.0" y="334.0" name="inserted"/>
      <point x="1002.5" y="175.5"/>
      <point x="912" y="119" type="qcurve"/>
      <point x="835.0" y="71.0" name="inserted"/>
      <point x="649.5" y="23.0"/>
      <point x="541" y="23" type="qcurve"/>
      <point x="472.5" y="23.0" name="inserted"/>
      <point x="337.0" y="54.5"/>
      <point x="270" y="86" type="qcurve"/>
      <point x="194.0" y="122.5" name="inserted"/>
      <point x="96.0" y="216.5"/>
      <point x="74" y="274" type="qcurve"/>
      <point x="70.5" y="283.5" name="inserted"/>
      <point x="67.0" y="308.0"/>
      <point x="67" y="323" type="qcurve"/>
      <point x="67.0" y="334.5" name="inserted"/>
      <point x="70.5" y="346.0"/>
      <point x="74" y="346" type="qcurve"/>
      <point x="97.0" y="331.0" name="inserted"/>
      <point x="150.0" y="296.0"/>
      <point x="180" y="276" type="qcurve"/>
      <point x="263.5" y="229.0" name="inserted"/>
      <point x="444.0" y="182.0"/>
      <point x="541" y="182" type="qcurve"/>
      <point x="612.5" y="182.0" name="inserted"/>
      <point x="739.0" y="210.0"/>
      <point x="794" y="238" type="qcurve"/>
      <point x="863.5" y="273.0" name="inserted"/>
      <point x="933.0" y="372.0"/>
      <point x="933" y="436" type="qcurve"/>
      <point x="933.0" y="486.5" name="inserted"/>
      <point x="904.5" y="576.5"/>
      <point x="876" y="616" type="qcurve"/>
      <point x="821.0" y="576.5" name="inserted"/>
      <point x="725.0" y="523.5"/>
      <point x="684" y="510" type="qcurve"/>
      <point x="641.0" y="495.5" name="inserted"/>
      <point x="532.0" y="481.0"/>
      <point x="466" y="481" type="qcurve"/>
      <point x="408.0" y="481.0" name="inserted"/>
      <point x="303.5" y="507.5"/>
      <point x="257" y="534" type="qcurve"/>
      <point x="202.0" y="566.0" name="inserted"/>
      <point x="147.0" y="651.5"/>
      <point x="147" y="705" type="qcurve"/>
      <point x="147.0" y="778.5" name="inserted"/>
      <point x="214.0" y="879.5"/>
      <point x="281" y="907" type="qcurve"/>
      <point x="325.0" y="925.5" name="inserted"/>
      <point x="454.0" y="944.0"/>
      <point x="539" y="944" type="qcurve"/>
      <point x="627.0" y="944.0" name="inserted"/>
      <point x="793.0" y="891.0"/>
      <point x="871" y="838" type="qcurve"/>
      <point x="887.0" y="864.0" name="inserted"/>
      <point x="915.5" y="946.0"/>
      <point x="928" y="1002" type="qcurve"/>
      <point x="939.5" y="1053.0" name="inserted"/>
      <point x="951.5" y="1140.0"/>
      <point x="952" y="1176" type="qcurve"/>
      <point x="0" y="1176" type="line"/>
      <point x="0" y="1320" type="line"/>
      <point x="1284" y="1320" type="line"/>
    </contour>
    <contour>
      <point x="763" y="714" type="qcurve"/>
      <point x="707.0" y="749.0" name="inserted"/>
      <point x="589.5" y="784.0"/>
      <point x="528" y="784" type="qcurve"/>
      <point x="417.5" y="784.0" name="inserted"/>
      <point x="307.0" y="744.5"/>
      <point x="307" y="705" type="qcurve"/>
      <point x="307.0" y="691.0" name="inserted"/>
      <point x="340.5" y="667.0"/>
      <point x="374" y="657" type="qcurve"/>
      <point x="400.5" y="649.0" name="inserted"/>
      <point x="446.5" y="641.0"/>
      <point x="466" y="641" type="qcurve"/>
      <point x="521.0" y="641.0" name="inserted"/>
      <point x="599.0" y="645.5"/>
      <point x="622" y="650" type="qcurve"/>
      <point x="659.5" y="657.0" name="inserted"/>
      <point x="730.0" y="689.0"/>
    </contour>
    <contour>
      <point x="314" y="-132" type="qcurve"/>
      <point x="314" y="-175"/>
      <point x="253" y="-236"/>
      <point x="210" y="-236" type="qcurve"/>
      <point x="167" y="-236"/>
      <point x="106" y="-175"/>
      <point x="106" y="-132" type="qcurve"/>
      <point x="106" y="-89"/>
      <point x="167" y="-28"/>
      <point x="210" y="-28" type="qcurve"/>
      <point x="253" y="-28"/>
      <point x="314" y="-89"/>
    </contour>
    <contour>
      <point x="994" y="-554" type="line"/>
      <point x="868" y="-651" type="line"/>
      <point x="572" y="-236" type="line"/>
      <point x="701" y="-144" type="line"/>
    </contour>
  </outline>
</glyph>
<glyph name="u0A30_u0A4D" format="1">
  <advance width="0"/>
  <outline>
    <contour>
      <point x="-492" y="-315" type="line"/>
      <point x="-427.074626866" y="-333.656716418"/>
      <point x="-296.791044776" y="-373.328358209"/>
      <point x="-255" y="-389" type="qcurve" smooth="yes"/>
      <point x="-221.417910448" y="-401.686567164"/>
      <point x="-118.343283582" y="-478.641791045"/>
      <point x="-37" y="-557" type="qcurve"/>
      <point x="-19" y="-530" type="line"/>
      <point x="-83.9253731343" y="-463.582089552"/>
      <point x="-172.298507463" y="-393.597014925"/>
      <point x="-232" y="-363" type="qcurve" smooth="yes"/>
      <point x="-277.52238806" y="-339.865671642"/>
      <point x="-412.537313433" y="-296.671641791"/>
      <point x="-470" y="-281" type="qcurve"/>
    </contour>
    <contour>
      <point x="-221" y="-136" type="line"/>
      <point x="-256" y="-136" type="line"/>
      <point x="-256" y="-378" type="line"/>
      <point x="-221" y="-382" type="line"/>
    </contour>
    <contour>
      <point x="0" y="0" type="move" name="_mark0"/>
    </contour>
  </outline>
</glyph>
<glyph name="u0A30_u0A4D_u0A42" format="1">
  <advance width="0"/>
  <outline>
    <contour>
      <point x="45" y="-594" type="qcurve"/>
      <point x="-24" y="-696" type="line"/>
      <point x="-63.0" y="-667.0" name="inserted"/>
      <point x="-183.0" y="-580.5"/>
      <point x="-264" y="-523" type="qcurve"/>
      <point x="-287.5" y="-542.5" name="inserted"/>
      <point x="-348.5" y="-562.0"/>
      <point x="-386" y="-562" type="qcurve"/>
      <point x="-415.5" y="-562.0" name="inserted"/>
      <point x="-467.0" y="-547.5"/>
      <point x="-489" y="-533" type="qcurve"/>
      <point x="-514.5" y="-516.5" name="inserted"/>
      <point x="-540.0" y="-471.5"/>
      <point x="-540" y="-443" type="qcurve"/>
      <point x="-540.0" y="-391.5" name="inserted"/>
      <point x="-472.5" y="-340.0"/>
      <point x="-405" y="-340" type="qcurve"/>
      <point x="-381.0" y="-340.0" name="inserted"/>
      <point x="-336.0" y="-350.0"/>
      <point x="-315" y="-360" type="qcurve"/>
      <point x="-310.0" y="-329.5" name="inserted"/>
      <point x="-305.0" y="-210.0"/>
      <point x="-305" y="-121" type="qcurve"/>
      <point x="-305" y="-60" type="line"/>
      <point x="-182" y="-60" type="line"/>
      <point x="-182" y="-121" type="line"/>
      <point x="-182.0" y="-227.5" name="inserted"/>
      <point x="-192.5" y="-375.0"/>
      <point x="-203" y="-416" type="qcurve"/>
      <point x="-157.0" y="-449.5" name="inserted"/>
      <point x="-33.0" y="-538.5"/>
    </contour>
    <contour>
      <point x="-247" y="-895" type="qcurve"/>
      <point x="-345.0" y="-968.5" name="inserted"/>
      <point x="-574.5" y="-1042.0"/>
      <point x="-706" y="-1042" type="qcurve"/>
      <point x="-837.0" y="-1042.0" name="inserted"/>
      <point x="-1066.5" y="-968.5"/>
      <point x="-1165" y="-895" type="qcurve"/>
      <point x="-1142.0" y="-862.5" name="inserted"/>
      <point x="-1094.0" y="-798.5"/>
      <point x="-1069" y="-767" type="qcurve"/>
      <point x="-1039.0" y="-788.0" name="inserted"/>
      <point x="-959.5" y="-826.0"/>
      <point x="-910" y="-843" type="qcurve"/>
      <point x="-854.0" y="-862.5" name="inserted"/>
      <point x="-752.0" y="-882.0"/>
      <point x="-706" y="-882" type="qcurve"/>
      <point x="-660.5" y="-882.0" name="inserted"/>
      <point x="-554.5" y="-860.5"/>
      <point x="-494" y="-839" type="qcurve"/>
      <point x="-442.5" y="-821.0" name="inserted"/>
      <point x="-367.0" y="-785.0"/>
      <point x="-343" y="-767" type="qcurve"/>
      <point x="-318.0" y="-798.5" name="inserted"/>
      <point x="-270.0" y="-862.5"/>
    </contour>
    <contour>
      <point x="-247" y="-1205" type="qcurve"/>
      <point x="-345.0" y="-1278.5" name="inserted"/>
      <point x="-574.5" y="-1352.0"/>
      <point x="-706" y="-1352" type="qcurve"/>
      <point x="-837.0" y="-1352.0" name="inserted"/>
      <point x="-1066.5" y="-1278.5"/>
      <point x="-1165" y="-1205" type="qcurve"/>
      <point x="-1142.0" y="-1172.5" name="inserted"/>
      <point x="-1094.0" y="-1108.5"/>
      <point x="-1069" y="-1077" type="qcurve"/>
      <point x="-1039.0" y="-1098.0" name="inserted"/>
      <point x="-959.5" y="-1136.0"/>
      <point x="-910" y="-1153" type="qcurve"/>
      <point x="-854.0" y="-1172.5" name="inserted"/>
      <point x="-752.0" y="-1192.0"/>
      <point x="-706" y="-1192" type="qcurve"/>
      <point x="-660.5" y="-1192.0" name="inserted"/>
      <point x="-554.5" y="-1170.5"/>
      <point x="-494" y="-1149" type="qcurve"/>
      <point x="-442.5" y="-1131.0" name="inserted"/>
      <point x="-367.0" y="-1095.0"/>
      <point x="-343" y="-1077" type="qcurve"/>
      <point x="-318.0" y="-1108.5" name="inserted"/>
      <point x="-270.0" y="-1172.5"/>
    </contour>
  </outline>
</glyph>
<glyph name="u0A30_u0A4D_u0A4D" format="1">
  <advance width="0"/>
  <outline>
    <contour>
      <point x="45" y="-594" type="qcurve"/>
      <point x="-24" y="-696" type="line"/>
      <point x="-63.0" y="-667.0" name="inserted"/>
      <point x="-183.0" y="-580.5"/>
      <point x="-264" y="-523" type="qcurve"/>
      <point x="-287.5" y="-542.5" name="inserted"/>
      <point x="-348.5" y="-562.0"/>
      <point x="-386" y="-562" type="qcurve"/>
      <point x="-415.5" y="-562.0" name="inserted"/>
      <point x="-467.0" y="-547.5"/>
      <point x="-489" y="-533" type="qcurve"/>
      <point x="-514.5" y="-516.5" name="inserted"/>
      <point x="-540.0" y="-471.5"/>
      <point x="-540" y="-443" type="qcurve"/>
      <point x="-540.0" y="-391.5" name="inserted"/>
      <point x="-472.5" y="-340.0"/>
      <point x="-405" y="-340" type="qcurve"/>
      <point x="-381.0" y="-340.0" name="inserted"/>
      <point x="-336.0" y="-350.0"/>
      <point x="-315" y="-360" type="qcurve"/>
      <point x="-310.0" y="-329.5" name="inserted"/>
      <point x="-305.0" y="-210.0"/>
      <point x="-305" y="-121" type="qcurve"/>
      <point x="-305" y="-60" type="line"/>
      <point x="-182" y="-60" type="line"/>
      <point x="-182" y="-121" type="line"/>
      <point x="-182.0" y="-227.5" name="inserted"/>
      <point x="-192.5" y="-375.0"/>
      <point x="-203" y="-416" type="qcurve"/>
      <point x="-157.0" y="-449.5" name="inserted"/>
      <point x="-33.0" y="-538.5"/>
    </contour>
    <contour>
      <point x="46" y="-1190" type="line"/>
      <point x="-80" y="-1287" type="line"/>
      <point x="-376" y="-872" type="line"/>
      <point x="-247" y="-780" type="line"/>
    </contour>
  </outline>
</glyph>
<glyph name="u0A35_u0A3C_u0A4D" format="1">
  <advance width="1260"/>
  <outline>
    <contour>
      <point x="1284" y="1176" type="line"/>
      <point x="1100" y="1176" type="line"/>
      <point x="1100" y="825" type="line"/>
      <point x="465" y="825" type="line"/>
      <point x="368.5" y="825.0" name="inserted"/>
      <point x="272.0" y="753.5"/>
      <point x="272" y="682" type="qcurve"/>
      <point x="272.0" y="612.5" name="inserted"/>
      <point x="405.5" y="543.0"/>
      <point x="539" y="543" type="qcurve"/>
      <point x="1100" y="543" type="line"/>
      <point x="1100" y="387" type="line"/>
      <point x="616" y="387" type="line"/>
      <point x="614.5" y="375.0" name="inserted"/>
      <point x="611.5" y="340.0"/>
      <point x="610" y="317" type="qcurve"/>
      <point x="610.0" y="269.5" name="inserted"/>
      <point x="718.5" y="202.5"/>
      <point x="827" y="183" type="qcurve"/>
      <point x="889.5" y="171.5" name="inserted"/>
      <point x="1026.0" y="160.0"/>
      <point x="1100" y="160" type="qcurve"/>
      <point x="1100" y="0" type="line"/>
      <point x="986.5" y="0.0" name="inserted"/>
      <point x="791.0" y="25.0"/>
      <point x="709" y="50" type="qcurve"/>
      <point x="578.5" y="90.0" name="inserted"/>
      <point x="448.0" y="224.0"/>
      <point x="448" y="318" type="qcurve"/>
      <point x="448.0" y="343.5" name="inserted"/>
      <point x="450.0" y="378.0"/>
      <point x="452" y="387" type="qcurve"/>
      <point x="385.0" y="392.5" name="inserted"/>
      <point x="270.5" y="434.5"/>
      <point x="223" y="471" type="qcurve"/>
      <point x="167.5" y="513.0" name="inserted"/>
      <point x="112.0" y="621.0"/>
      <point x="112" y="687" type="qcurve"/>
      <point x="112.0" y="841.5" name="inserted"/>
      <point x="305.5" y="996.0"/>
      <point x="499" y="996" type="qcurve"/>
      <point x="940" y="996" type="line"/>
      <point x="940" y="1176" type="line"/>
      <point x="0" y="1176" type="line"/>
      <point x="0" y="1320" type="line"/>
      <point x="1284" y="1320" type="line"/>
    </contour>
    <contour>
      <point x="314" y="68" type="qcurve"/>
      <point x="314" y="25"/>
      <point x="253" y="-36"/>
      <point x="210" y="-36" type="qcurve"/>
      <point x="167" y="-36"/>
      <point x="106" y="25"/>
      <point x="106" y="68" type="qcurve"/>
      <point x="106" y="111"/>
      <point x="167" y="172"/>
      <point x="210" y="172" type="qcurve"/>
      <point x="253" y="172"/>
      <point x="314" y="111"/>
    </contour>
    <contour>
      <point x="1258" y="-554" type="line"/>
      <point x="1132" y="-651" type="line"/>
      <point x="836" y="-236" type="line"/>
      <point x="965" y="-144" type="line"/>
    </contour>
  </outline>
</glyph>
<glyph name="u0A35_u0A4D_u0A41" format="1">
  <advance width="0"/>
  <outline>
    <contour>
      <point x="-180" y="-696" type="line"/>
      <point x="-342.0" y="-689.0" name="inserted"/>
      <point x="-504.0" y="-595.0"/>
      <point x="-504" y="-508" type="qcurve"/>
      <point x="-504" y="-477" type="line"/>
      <point x="-563.5" y="-455.5" name="inserted"/>
      <point x="-623.0" y="-371.5"/>
      <point x="-623" y="-309" type="qcurve"/>
      <point x="-623.0" y="-213.5" name="inserted"/>
      <point x="-519.5" y="-118.0"/>
      <point x="-416" y="-118" type="qcurve"/>
      <point x="-304" y="-118" type="line"/>
      <point x="-304" y="-60" type="line"/>
      <point x="-180" y="-60" type="line"/>
      <point x="-180" y="-239" type="line"/>
      <point x="-403" y="-239" type="line"/>
      <point x="-451.0" y="-239.0" name="inserted"/>
      <point x="-499.0" y="-270.5"/>
      <point x="-499" y="-302" type="qcurve"/>
      <point x="-499.0" y="-322.0" name="inserted"/>
      <point x="-483.0" y="-348.0"/>
      <point x="-467" y="-354" type="qcurve"/>
      <point x="-459.5" y="-356.5" name="inserted"/>
      <point x="-429.0" y="-359.0"/>
      <point x="-406" y="-359" type="qcurve"/>
      <point x="-180" y="-359" type="line"/>
      <point x="-180" y="-481" type="line"/>
      <point x="-362" y="-481" type="line"/>
      <point x="-362" y="-503" type="line"/>
      <point x="-362.0" y="-523.0" name="inserted"/>
      <point x="-331.0" y="-550.5"/>
      <point x="-300" y="-558" type="qcurve"/>
      <point x="-293.5" y="-559.5" name="inserted"/>
      <point x="-233.5" y="-566.5"/>
      <point x="-180" y="-572" type="qcurve"/>
    </contour>
    <contour>
      <point x="-247" y="-895" type="qcurve"/>
      <point x="-345.0" y="-968.5" name="inserted"/>
      <point x="-574.5" y="-1042.0"/>
      <point x="-706" y="-1042" type="qcurve"/>
      <point x="-837.0" y="-1042.0" name="inserted"/>
      <point x="-1066.5" y="-968.5"/>
      <point x="-1165" y="-895" type="qcurve"/>
      <point x="-1142.0" y="-862.5" name="inserted"/>
      <point x="-1094.0" y="-798.5"/>
      <point x="-1069" y="-767" type="qcurve"/>
      <point x="-1039.0" y="-788.0" name="inserted"/>
      <point x="-959.5" y="-826.0"/>
      <point x="-910" y="-843" type="qcurve"/>
      <point x="-854.0" y="-862.5" name="inserted"/>
      <point x="-752.0" y="-882.0"/>
      <point x="-706" y="-882" type="qcurve"/>
      <point x="-660.5" y="-882.0" name="inserted"/>
      <point x="-554.5" y="-860.5"/>
      <point x="-494" y="-839" type="qcurve"/>
      <point x="-442.5" y="-821.0" name="inserted"/>
      <point x="-367.0" y="-785.0"/>
      <point x="-343" y="-767" type="qcurve"/>
      <point x="-318.0" y="-798.5" name="inserted"/>
      <point x="-270.0" y="-862.5"/>
    </contour>
  </outline>
</glyph>
<glyph name="u0A35_u0A4D_u0A4D" format="1">
  <advance width="0"/>
  <outline>
    <contour>
      <point x="-180" y="-696" type="line"/>
      <point x="-342.0" y="-689.0" name="inserted"/>
      <point x="-504.0" y="-595.0"/>
      <point x="-504" y="-508" type="qcurve"/>
      <point x="-504" y="-477" type="line"/>
      <point x="-563.5" y="-455.5" name="inserted"/>
      <point x="-623.0" y="-371.5"/>
      <point x="-623" y="-309" type="qcurve"/>
      <point x="-623.0" y="-213.5" name="inserted"/>
      <point x="-519.5" y="-118.0"/>
      <point x="-416" y="-118" type="qcurve"/>
      <point x="-304" y="-118" type="line"/>
      <point x="-304" y="-60" type="line"/>
      <point x="-180" y="-60" type="line"/>
      <point x="-180" y="-239" type="line"/>
      <point x="-403" y="-239" type="line"/>
      <point x="-451.0" y="-239.0" name="inserted"/>
      <point x="-499.0" y="-270.5"/>
      <point x="-499" y="-302" type="qcurve"/>
      <point x="-499.0" y="-322.0" name="inserted"/>
      <point x="-483.0" y="-348.0"/>
      <point x="-467" y="-354" type="qcurve"/>
      <point x="-459.5" y="-356.5" name="inserted"/>
      <point x="-429.0" y="-359.0"/>
      <point x="-406" y="-359" type="qcurve"/>
      <point x="-180" y="-359" type="line"/>
      <point x="-180" y="-481" type="line"/>
      <point x="-362" y="-481" type="line"/>
      <point x="-362" y="-503" type="line"/>
      <point x="-362.0" y="-523.0" name="inserted"/>
      <point x="-331.0" y="-550.5"/>
      <point x="-300" y="-558" type="qcurve"/>
      <point x="-293.5" y="-559.5" name="inserted"/>
      <point x="-233.5" y="-566.5"/>
      <point x="-180" y="-572" type="qcurve"/>
    </contour>
    <contour>
      <point x="-2" y="-1190" type="line"/>
      <point x="-128" y="-1287" type="line"/>
      <point x="-424" y="-872" type="line"/>
      <point x="-295" y="-780" type="line"/>
    </contour>
  </outline>
</glyph>
<glyph name="u0A39_u0A4D_u0A41" format="1">
  <advance width="0"/>
  <outline>
    <contour>
      <point x="-179" y="-468" type="line"/>
      <point x="-179.0" y="-582.0" name="inserted"/>
      <point x="-275.0" y="-696.0"/>
      <point x="-371" y="-696" type="qcurve"/>
      <point x="-421.0" y="-696.0" name="inserted"/>
      <point x="-529.0" y="-645.5"/>
      <point x="-587" y="-595" type="qcurve"/>
      <point x="-646.5" y="-543.0" name="inserted"/>
      <point x="-706.0" y="-443.0"/>
      <point x="-706" y="-395" type="qcurve"/>
      <point x="-706.0" y="-321.0" name="inserted"/>
      <point x="-630.0" y="-247.0"/>
      <point x="-554" y="-247" type="qcurve"/>
      <point x="-513" y="-247" type="line"/>
      <point x="-513" y="-371" type="line"/>
      <point x="-543" y="-371" type="line"/>
      <point x="-562.0" y="-371.0" name="inserted"/>
      <point x="-581.0" y="-390.0"/>
      <point x="-581" y="-409" type="qcurve"/>
      <point x="-581" y="-446"/>
      <point x="-429" y="-572"/>
      <point x="-377" y="-572" type="qcurve"/>
      <point x="-340.0" y="-572.0" name="inserted"/>
      <point x="-303.0" y="-517.0"/>
      <point x="-303" y="-462" type="qcurve"/>
      <point x="-303" y="-60" type="line"/>
      <point x="-179" y="-60" type="line"/>
    </contour>
    <contour>
      <point x="-247" y="-895" type="qcurve"/>
      <point x="-345.0" y="-968.5" name="inserted"/>
      <point x="-574.5" y="-1042.0"/>
      <point x="-706" y="-1042" type="qcurve"/>
      <point x="-837.0" y="-1042.0" name="inserted"/>
      <point x="-1066.5" y="-968.5"/>
      <point x="-1165" y="-895" type="qcurve"/>
      <point x="-1142.0" y="-862.5" name="inserted"/>
      <point x="-1094.0" y="-798.5"/>
      <point x="-1069" y="-767" type="qcurve"/>
      <point x="-1039.0" y="-788.0" name="inserted"/>
      <point x="-959.5" y="-826.0"/>
      <point x="-910" y="-843" type="qcurve"/>
      <point x="-854.0" y="-862.5" name="inserted"/>
      <point x="-752.0" y="-882.0"/>
      <point x="-706" y="-882" type="qcurve"/>
      <point x="-660.5" y="-882.0" name="inserted"/>
      <point x="-554.5" y="-860.5"/>
      <point x="-494" y="-839" type="qcurve"/>
      <point x="-442.5" y="-821.0" name="inserted"/>
      <point x="-367.0" y="-785.0"/>
      <point x="-343" y="-767" type="qcurve"/>
      <point x="-318.0" y="-798.5" name="inserted"/>
      <point x="-270.0" y="-862.5"/>
    </contour>
  </outline>
</glyph>
<glyph name="u0A39_u0A4D_u0A4D" format="1">
  <advance width="0"/>
  <outline>
    <contour>
      <point x="-179" y="-468" type="line"/>
      <point x="-179.0" y="-582.0" name="inserted"/>
      <point x="-275.0" y="-696.0"/>
      <point x="-371" y="-696" type="qcurve"/>
      <point x="-421.0" y="-696.0" name="inserted"/>
      <point x="-529.0" y="-645.5"/>
      <point x="-587" y="-595" type="qcurve"/>
      <point x="-646.5" y="-543.0" name="inserted"/>
      <point x="-706.0" y="-443.0"/>
      <point x="-706" y="-395" type="qcurve"/>
      <point x="-706.0" y="-321.0" name="inserted"/>
      <point x="-630.0" y="-247.0"/>
      <point x="-554" y="-247" type="qcurve"/>
      <point x="-513" y="-247" type="line"/>
      <point x="-513" y="-371" type="line"/>
      <point x="-543" y="-371" type="line"/>
      <point x="-562.0" y="-371.0" name="inserted"/>
      <point x="-581.0" y="-390.0"/>
      <point x="-581" y="-409" type="qcurve"/>
      <point x="-581" y="-446"/>
      <point x="-429" y="-572"/>
      <point x="-377" y="-572" type="qcurve"/>
      <point x="-340.0" y="-572.0" name="inserted"/>
      <point x="-303.0" y="-517.0"/>
      <point x="-303" y="-462" type="qcurve"/>
      <point x="-303" y="-60" type="line"/>
      <point x="-179" y="-60" type="line"/>
    </contour>
    <contour>
      <point x="-30" y="-1190" type="line"/>
      <point x="-156" y="-1287" type="line"/>
      <point x="-452" y="-872" type="line"/>
      <point x="-323" y="-780" type="line"/>
    </contour>
  </outline>
</glyph>
<glyph name="u0A48_u0A02" format="1">
  <advance width="0"/>
  <outline>
    <contour>
      <point x="-154" y="1293" type="qcurve"/>
      <point x="-314" y="1293" type="line"/>
      <point x="-322.0" y="1316.5" name="inserted"/>
      <point x="-338.5" y="1363.5"/>
      <point x="-347" y="1387" type="qcurve"/>
      <point x="-359.0" y="1420.0" name="inserted"/>
      <point x="-380.5" y="1462.0"/>
      <point x="-390" y="1471" type="qcurve"/>
      <point x="-417.0" y="1498.0" name="inserted"/>
      <point x="-500.5" y="1525.0"/>
      <point x="-557" y="1525" type="qcurve"/>
      <point x="-695" y="1525" type="line"/>
      <point x="-695" y="1685" type="line"/>
      <point x="-547" y="1685" type="line"/>
      <point x="-517.5" y="1685.0" name="inserted"/>
      <point x="-459.0" y="1673.0"/>
      <point x="-430" y="1661" type="qcurve"/>
      <point x="-471.5" y="1738.5" name="inserted"/>
      <point x="-552.5" y="1816.0"/>
      <point x="-592" y="1816" type="qcurve"/>
      <point x="-695" y="1816" type="line"/>
      <point x="-695" y="1966" type="line"/>
      <point x="-547" y="1966" type="line"/>
      <point x="-478.0" y="1966.0" name="inserted"/>
      <point x="-352.5" y="1828.0"/>
      <point x="-296" y="1690" type="qcurve"/>
      <point x="-260.5" y="1590.5" name="inserted"/>
      <point x="-189.5" y="1392.0"/>
    </contour>
    <contour>
      <point x="51" y="1617" type="qcurve"/>
      <point x="51" y="1575"/>
      <point x="-8" y="1516"/>
      <point x="-50" y="1516" type="qcurve"/>
      <point x="-92" y="1516"/>
      <point x="-151" y="1575"/>
      <point x="-151" y="1617" type="qcurve"/>
      <point x="-151" y="1659"/>
      <point x="-92" y="1718"/>
      <point x="-50" y="1718" type="qcurve"/>
      <point x="-8" y="1718"/>
      <point x="51" y="1659"/>
    </contour>
    <contour>
      <point x="-234" y="1248" type="move" name="_mark0"/>
    </contour>
  </outline>
</glyph>
<glyph name="uni0A08.001" format="1">
  <advance width="1584"/>
  <outline>
    <contour>
      <point x="1770" y="1248" type="move" name="mark0"/>
    </contour>
    <component base="uni0A72" xOffset="9"/>
    <component base="uni0A40.001" xOffset="1113"/>
  </outline>
</glyph>
<glyph name="uni0A0F.003" format="1">
  <advance width="1111"/>
  <outline>
    <contour>
      <point x="1411" y="1248" type="move" name="mark0"/>
    </contour>
    <component base="uni0A72" xOffset="6"/>
    <component base="uni0A48.003" xOffset="1090"/>
  </outline>
</glyph>
<glyph name="uni0A0F.004" format="1">
  <advance width="1111"/>
  <outline>
    <contour>
      <point x="1411" y="1248" type="move" name="mark0"/>
    </contour>
    <component base="uni0A72" xOffset="6"/>
    <component base="uni0A48.004" xOffset="1097"/>
  </outline>
</glyph>
<glyph name="uni0A10.004" format="1">
  <advance width="1343"/>
  <outline>
    <contour>
      <point x="1108" y="956" type="line"/>
      <point x="1073" y="956" type="line"/>
      <point x="1073" y="0" type="line"/>
      <point x="1108" y="0" type="line"/>
    </contour>
    <contour>
      <point x="1342" y="920" type="line"/>
      <point x="1342" y="956" type="line"/>
      <point x="1073" y="956" type="line"/>
      <point x="1073" y="920" type="line"/>
    </contour>
    <contour>
      <point x="692" y="288" type="line"/>
      <point x="742.0" y="358.149253731"/>
      <point x="770.358208955" y="660.597014925"/>
      <point x="742" y="780" type="qcurve"/>
      <point x="659.164179104" y="788.955223881"/>
      <point x="397.074626866" y="667.23880597"/>
      <point x="312" y="565" type="qcurve"/>
      <point x="321" y="556" type="line"/>
      <point x="323.985074627" y="656.746268657"/>
      <point x="280.776119403" y="839.223880597"/>
      <point x="236" y="884" type="qcurve" smooth="yes"/>
      <point x="195.701492537" y="924.298507463"/>
      <point x="86.4776119403" y="956.0"/>
      <point x="32" y="956" type="qcurve" smooth="yes"/>
      <point x="1" y="956" type="line"/>
      <point x="-6" y="920" type="line"/>
      <point x="21" y="920" type="line" smooth="yes"/>
      <point x="95.6268656716" y="920.0"/>
      <point x="181.865671642" y="887.134328358"/>
      <point x="205" y="864" type="qcurve" smooth="yes"/>
      <point x="251.268656716" y="817.731343284"/>
      <point x="289.985074627" y="633.52238806"/>
      <point x="287" y="538" type="qcurve"/>
      <point x="142" y="367" type="line"/>
      <point x="186" y="345" type="line"/>
      <point x="335" y="539" type="line"/>
      <point x="399.925373134" y="628.552238806"/>
      <point x="650.179104478" y="751.194029851"/>
      <point x="736" y="740" type="qcurve"/>
      <point x="717" y="761" type="line"/>
      <point x="730.432835821" y="644.582089552"/>
      <point x="706.71641791" y="367.029850746"/>
      <point x="650" y="273" type="qcurve"/>
      <point x="529" y="124" type="line"/>
      <point x="573" y="102" type="line"/>
      <point x="666" y="229" type="line"/>
      <point x="736.895522388" y="317.059701493"/>
      <point x="957.671641791" y="393.0"/>
      <point x="1092" y="393" type="qcurve" smooth="yes"/>
      <point x="1099" y="393" type="line"/>
      <point x="1099" y="431" type="line"/>
      <point x="1088" y="431" type="line" smooth="yes"/>
      <point x="982.029850746" y="431.0"/>
      <point x="770.298507463" y="375.343283582"/>
      <point x="680" y="294" type="qcurve"/>
    </contour>
    <component base="uni0A47.004" xOffset="1350"/>
    <contour>
      <point x="1417" y="1248" type="move" name="mark0"/>
    </contour>
  </outline>
</glyph>
<glyph name="uni0A40.001" format="1">
  <advance width="472"/>
  <outline>
    <contour>
      <point x="254" y="1135" type="line"/>
      <point x="254.0" y="1287.23880597"/>
      <point x="108.895522388" y="1456.0"/>
      <point x="-12" y="1456" type="qcurve" smooth="yes"/>
      <point x="-114.985074627" y="1456.0"/>
      <point x="-289.925373134" y="1344.28358209"/>
      <point x="-375" y="1251" type="qcurve" smooth="yes"/>
      <point x="-416" y="1206" type="line"/>
      <point x="-385" y="1188" type="line"/>
      <point x="-349" y="1227" type="line" smooth="yes"/>
      <point x="-261.686567164" y="1321.7761194"/>
      <point x="-97.3134328358" y="1420.0"/>
      <point x="-10" y="1420" type="qcurve" smooth="yes"/>
      <point x="91.4925373134" y="1420.0"/>
      <point x="219.0" y="1273.98507463"/>
      <point x="219" y="1121" type="qcurve" smooth="yes"/>
      <point x="219" y="0" type="line"/>
      <point x="254" y="0" type="line"/>
    </contour>
    <contour>
      <point x="472" y="920" type="line"/>
      <point x="472" y="956" type="line"/>
      <point x="1" y="956" type="line"/>
      <point x="1" y="920" type="line"/>
    </contour>
  </outline>
</glyph>
<glyph name="uni0A47.002" format="1">
  <advance width="0"/>
  <outline>
    <contour>
      <point x="-601" y="1537" type="line"/>
      <point x="-455" y="1471" type="line" smooth="yes"/>
      <point x="-346.044776119" y="1423.23880597"/>
      <point x="-275.0" y="1267.6119403"/>
      <point x="-275" y="1190" type="qcurve" smooth="yes"/>
      <point x="-275" y="1083" type="line"/>
      <point x="-240" y="1083" type="line"/>
      <point x="-240" y="1199" type="line" smooth="yes"/>
      <point x="-240.0" y="1285.56716418"/>
      <point x="-318.059701493" y="1448.50746269"/>
      <point x="-430" y="1500" type="qcurve" smooth="yes"/>
      <point x="-573" y="1566" type="line"/>
    </contour>
    <contour>
      <point x="-885" y="1230" type="line"/>
      <point x="-583" y="1230" type="line" smooth="yes"/>
      <point x="-418.074626866" y="1230.0"/>
      <point x="-274.0" y="1150.94029851"/>
      <point x="-274" y="1089" type="qcurve" smooth="yes"/>
      <point x="-274" y="1084" type="line"/>
      <point x="-241" y="1084" type="line"/>
      <point x="-242" y="1088" type="line"/>
      <point x="-244.23880597" y="1169.34328358"/>
      <point x="-400.104477612" y="1266.0"/>
      <point x="-571" y="1266" type="qcurve" smooth="yes"/>
      <point x="-867" y="1266" type="line"/>
    </contour>
  </outline>
</glyph>
<glyph name="uni0A47.004" format="1">
  <advance width="0"/>
  <outline>
    <contour>
      <point x="-625" y="1549" type="line"/>
      <point x="-487" y="1492" type="line" smooth="yes"/>
      <point x="-354.164179104" y="1437.52238806"/>
      <point x="-275.0" y="1311.05970149"/>
      <point x="-275" y="1223" type="qcurve" smooth="yes"/>
      <point x="-275" y="1083" type="line"/>
      <point x="-240" y="1083" type="line"/>
      <point x="-240" y="1239" type="line" smooth="yes"/>
      <point x="-240.0" y="1331.53731343"/>
      <point x="-323.388059701" y="1456.28358209"/>
      <point x="-451" y="1513" type="qcurve" smooth="yes"/>
      <point x="-597" y="1578" type="line"/>
    </contour>
    <contour>
      <point x="-917" y="1357" type="line"/>
      <point x="-656" y="1270" type="line" smooth="yes"/>
      <point x="-497.791044776" y="1222.23880597"/>
      <point x="-274.0" y="1092.73134328"/>
      <point x="-274" y="1089" type="qcurve" smooth="yes"/>
      <point x="-274" y="1084" type="line"/>
      <point x="-241" y="1084" type="line"/>
      <point x="-242" y="1088" type="line"/>
      <point x="-244.23880597" y="1113.37313433"/>
      <point x="-470.567164179" y="1251.74626866"/>
      <point x="-634" y="1301" type="qcurve" smooth="yes"/>
      <point x="-890" y="1386" type="line"/>
    </contour>
  </outline>
</glyph>
<glyph name="uni0A48.001" format="1">
  <advance width="8"/>
  <outline>
    <contour>
      <point x="-672" y="1587" type="line"/>
      <point x="-595" y="1546" type="line" smooth="yes"/>
      <point x="-468.880597015" y="1465.40298507"/>
      <point x="-319.47761194" y="1263.68656716"/>
      <point x="-265" y="1101" type="qcurve" smooth="yes"/>
      <point x="-257" y="1077" type="line"/>
      <point x="-213" y="1065" type="line"/>
      <point x="-224" y="1100" type="line" smooth="yes"/>
      <point x="-279.970149254" y="1269.40298507"/>
      <point x="-435.388059701" y="1489.3880597"/>
      <point x="-563" y="1567" type="qcurve" smooth="yes"/>
      <point x="-640" y="1605" type="line"/>
    </contour>
  </outline>
</glyph>
<glyph name="uni0A4B.002" format="1">
  <advance width="0"/>
  <outline>
    <contour>
      <point x="-468.432835821" y="1319.0"/>
      <point x="-546.089552239" y="1319.0"/>
      <point x="-564" y="1319" type="qcurve" smooth="yes"/>
      <point x="-619.970149254" y="1320.49253731"/>
      <point x="-671.611940299" y="1370.6119403"/>
      <point x="-694" y="1443" type="qcurve"/>
      <point x="-723" y="1416" type="line"/>
      <point x="-695.388059701" y="1333.91044776"/>
      <point x="-620.701492537" y="1284.49253731"/>
      <point x="-561" y="1283" type="qcurve" smooth="yes"/>
      <point x="-547.567164179" y="1283.0"/>
      <point x="-466.417910448" y="1283.0"/>
      <point x="-450" y="1283" type="qcurve" smooth="yes"/>
      <point x="-385.074626866" y="1283.0"/>
      <point x="-305.701492537" y="1207.70149254"/>
      <point x="-296" y="1148" type="qcurve" smooth="yes"/>
      <point x="-266" y="945" type="line"/>
      <point x="-231" y="945" type="line"/>
      <point x="-261" y="1158" type="line" smooth="yes"/>
      <point x="-271.447761194" y="1229.64179104"/>
      <point x="-368.432835821" y="1319.0"/>
      <point x="-455" y="1319" type="qcurve" smooth="yes"/>
    </contour>
  </outline>
</glyph>
<glyph name="uni0A6A.001" format="1">
  <advance width="1074"/>
  <outline>
    <contour>
      <point x="312.0" y="168.388059701"/>
      <point x="437.537313433" y="61.0"/>
      <point x="545" y="61" type="qcurve" smooth="yes"/>
      <point x="648.731343284" y="61.0"/>
      <point x="781.0" y="163.626865672"/>
      <point x="781" y="239" type="qcurve" smooth="yes"/>
      <point x="781.0" y="285.268656716"/>
      <point x="728.656716418" y="414.641791045"/>
      <point x="660" y="493" type="qcurve" smooth="yes"/>
      <point x="567.462686567" y="599.71641791"/>
      <point x="318.044776119" y="841.402985075"/>
      <point x="177" y="922" type="qcurve"/>
      <point x="149" y="897" type="line"/>
      <point x="265.417910448" y="829.835820896"/>
      <point x="518.492537313" y="594.447761194"/>
      <point x="617" y="484" type="qcurve" smooth="yes"/>
      <point x="683.417910448" y="410.119402985"/>
      <point x="742.0" y="281.029850746"/>
      <point x="742" y="237" type="qcurve" smooth="yes"/>
      <point x="742.0" y="180.28358209"/>
      <point x="623.358208955" y="97.0"/>
      <point x="545" y="97" type="qcurve" smooth="yes"/>
      <point x="451.71641791" y="97.0"/>
      <point x="351.0" y="189.47761194"/>
      <point x="351" y="235" type="qcurve" smooth="yes"/>
      <point x="351.0" y="282.014925373"/>
      <point x="385.119402985" y="391.880597015"/>
      <point x="459" y="468" type="qcurve" smooth="yes"/>
      <point x="556.014925373" y="568.0"/>
      <point x="826.402985075" y="808.686567164"/>
      <point x="957" y="896" type="qcurve"/>
      <point x="935" y="921" type="line"/>
      <point x="822.313432836" y="854.582089552"/>
      <point x="534.955223881" y="600.432835821"/>
      <point x="426" y="487" type="qcurve" smooth="yes"/>
      <point x="352.119402985" y="410.134328358"/>
      <point x="312.0" y="296.0"/>
      <point x="312" y="246" type="qcurve" smooth="yes"/>
    </contour>
  </outline>
</glyph>
